<svg xmlns="http://www.w3.org/2000/svg" width="460" height="977" viewBox="0 0 460 977">
  <g id="Group_675" data-name="Group 675" transform="translate(20466 -1559)">
    <rect id="Image_25" data-name="Image 25" width="460" height="977" transform="translate(-20466 1559)" fill="#002b44"/>
    <g id="Group_674" data-name="Group 674" transform="translate(-21165 -103)">
      <path id="Path_16577" data-name="Path 16577" d="M1.4-17.5V37.939h9.821V32.395h1.109c2.059,3.326,5.544,6.653,12.513,6.653,9.821,0,18.057-8.712,18.057-20.75S34.663-2.452,24.843-2.452C17.873-2.452,14.388.874,12.329,4.2h-.95V-17.5ZM22.15,6.418c6.019,0,10.771,4.277,10.771,11.88s-4.752,11.88-10.771,11.88c-6.177,0-10.771-4.435-10.771-11.88S15.972,6.418,22.15,6.418ZM47.018,17.981c0,12.2,8.474,21.067,20.2,21.067,10.533,0,15.127-5.544,17.82-9.662l-8.157-4.752a10.306,10.306,0,0,1-9.821,5.861c-5.7,0-9.425-4.039-9.821-9.266H85.825V17.347c0-11.8-7.682-19.8-19.087-19.8C55.176-2.452,47.018,6.1,47.018,17.981Zm10.3-3.722C58.106,9.427,61.036,6.1,66.659,6.1c5.148,0,8.316,3.168,9.029,8.157Zm30.175-15.6V7.21h9.979V30.336a7.45,7.45,0,0,0,7.761,7.6H116V29.385h-6.336c-1.426,0-2.218-.792-2.218-2.376V7.21h10.771V-1.344H107.446v-12.2H97.467v12.2ZM123.6,7.685l8.078,5.227c2.455-4.118,5.7-6.811,10.929-6.811,5.385,0,8.237,2.93,8.237,6.653v.95L135.8,15.367c-7.524.792-12.988,5.148-12.988,11.4,0,7.524,5.861,12.276,14.731,12.276,8.316,0,11.088-4.039,12.355-6.653h1.109v5.544h9.821V12.833c0-9.187-6.969-15.285-17.661-15.285C133.582-2.452,128.275,1.824,123.6,7.685Zm9.662,18.532c0-2.3,1.822-3.643,5.544-4.118l12.038-1.426v.634c0,5.385-3.881,9.5-10.85,9.5C135.562,30.811,133.265,28.91,133.265,26.217ZM210.087-1.344H196.148l-16,13.464h-.95V-17.5h-9.979V37.939H179.2V24.4l6.019-4.989,12.672,18.532h11.563L192.268,13.466Zm14.572,0h-9.979V37.939h9.979Zm4.752,0V7.21h9.979V30.336a7.45,7.45,0,0,0,7.761,7.6h10.771V29.385h-6.336c-1.426,0-2.218-.792-2.218-2.376V7.21H260.14V-1.344H249.369v-12.2H239.39v12.2Z" transform="translate(786.591 2125.145)" fill="#fff"/>
      <g id="Group_544" data-name="Group 544" transform="translate(850.128 1908.19)">
        <path id="Path_16574" data-name="Path 16574" d="M16,65.413,49.491,84.551V46.275L82.982,26.927,49.491,8,16,27.138Z" transform="translate(-16 30.275)" fill="#5182f8" fill-rule="evenodd"/>
        <path id="Path_16575" data-name="Path 16575" d="M2,57.413,35.491,76.551V38.275L68.977,19.138,35.486,0,2,19.138Z" transform="translate(64.987)" fill="#1baaa0" fill-rule="evenodd"/>
        <path id="Path_16576" data-name="Path 16576" d="M2,73.413,35.491,92.551l0-38.275L68.977,35.138,35.491,16,2,35.138Z" transform="translate(64.987 60.551)" fill="#f84f77" fill-rule="evenodd"/>
      </g>
    </g>
    <g id="shape2" transform="translate(-19008.811 7344.915) rotate(180)">
      <path id="Path_16337" data-name="Path 16337" d="M6417.24,4861.286c4.335-2.251,18.429-5.565,25.66,16.119s5.991,30.1-8.466,22.87-22.1-16.036-24.549-23.987S6412.908,4863.537,6417.24,4861.286Z" transform="translate(-5228.16 48.801)" fill="#34b3aa"/>
      <path id="Path_16338" data-name="Path 16338" d="M6417.24,4861.286c4.335-2.251,18.429-5.565,25.66,16.119s5.991,30.1-8.466,22.87-22.1-16.036-24.549-23.987S6412.908,4863.537,6417.24,4861.286Z" transform="translate(-5174.102 66.82)" fill="#34b3aa"/>
      <path id="Path_16339" data-name="Path 16339" d="M6417.24,4861.286c4.335-2.251,18.429-5.565,25.66,16.119s5.991,30.1-8.466,22.87-22.1-16.036-24.549-23.987S6412.908,4863.537,6417.24,4861.286Z" transform="translate(-5102.023 79.692)" fill="#34b3aa"/>
      <path id="Path_16340" data-name="Path 16340" d="M6417.24,4861.286c4.335-2.251,18.429-5.565,25.66,16.119s5.991,30.1-8.466,22.87-22.1-16.036-24.549-23.987S6412.908,4863.537,6417.24,4861.286Z" transform="translate(-5117.469 144.047)" fill="#34b3aa"/>
      <path id="Path_16341" data-name="Path 16341" d="M6417.24,4861.286c4.335-2.251,18.429-5.565,25.66,16.119s5.991,30.1-8.466,22.87-22.1-16.036-24.549-23.987S6412.908,4863.537,6417.24,4861.286Z" transform="translate(-5189.547 123.454)" fill="#34b3aa"/>
      <path id="Path_16342" data-name="Path 16342" d="M6417.24,4861.286c4.335-2.251,18.429-5.565,25.66,16.119s5.991,30.1-8.466,22.87-22.1-16.036-24.549-23.987S6412.908,4863.537,6417.24,4861.286Z" transform="translate(-5259.051 113.157)" fill="#34b3aa"/>
      <path id="Path_16343" data-name="Path 16343" d="M6417.24,4861.286c4.335-2.251,18.429-5.565,25.66,16.119s5.991,30.1-8.466,22.87-22.1-16.036-24.549-23.987S6412.908,4863.537,6417.24,4861.286Z" transform="translate(-5277.071 167.215)" fill="#34b3aa"/>
      <path id="Path_16344" data-name="Path 16344" d="M6417.24,4861.286c4.335-2.251,18.429-5.565,25.66,16.119s5.991,30.1-8.466,22.87-22.1-16.036-24.549-23.987S6412.908,4863.537,6417.24,4861.286Z" transform="translate(-5220.438 187.809)" fill="#34b3aa"/>
      <path id="Path_16345" data-name="Path 16345" d="M6417.24,4861.286c4.335-2.251,18.429-5.565,25.66,16.119s5.991,30.1-8.466,22.87-22.1-16.036-24.549-23.987S6412.908,4863.537,6417.24,4861.286Z" transform="translate(-5130.341 208.403)" fill="#34b3aa"/>
      <path id="Path_16346" data-name="Path 16346" d="M6417.24,4861.286c4.335-2.251,18.429-5.565,25.66,16.119s5.991,30.1-8.466,22.87-22.1-16.036-24.549-23.987S6412.908,4863.537,6417.24,4861.286Z" transform="translate(-5058.261 164.641)" fill="#34b3aa"/>
      <path id="Path_16347" data-name="Path 16347" d="M6417.24,4861.286c4.335-2.251,18.429-5.565,25.66,16.119s5.991,30.1-8.466,22.87-22.1-16.036-24.549-23.987S6412.908,4863.537,6417.24,4861.286Z" transform="translate(-5333.704 105.434)" fill="#34b3aa"/>
      <path id="Path_16348" data-name="Path 16348" d="M6417.24,4861.286c4.335-2.251,18.429-5.565,25.66,16.119s5.991,30.1-8.466,22.87-22.1-16.036-24.549-23.987S6412.908,4863.537,6417.24,4861.286Z" transform="translate(-5300.239 38.504)" fill="#34b3aa"/>
      <path id="Path_16349" data-name="Path 16349" d="M6417.24,4861.286c4.335-2.251,18.429-5.565,25.66,16.119s5.991,30.1-8.466,22.87-22.1-16.036-24.549-23.987S6412.908,4863.537,6417.24,4861.286Z" transform="translate(-5287.368 -31)" fill="#34b3aa"/>
      <path id="Path_16350" data-name="Path 16350" d="M6417.24,4861.286c4.335-2.251,18.429-5.565,25.66,16.119s5.991,30.1-8.466,22.87-22.1-16.036-24.549-23.987S6412.908,4863.537,6417.24,4861.286Z" transform="translate(-5223.011 -20.704)" fill="#34b3aa"/>
      <path id="Path_16351" data-name="Path 16351" d="M6417.24,4861.286c4.335-2.251,18.429-5.565,25.66,16.119s5.991,30.1-8.466,22.87-22.1-16.036-24.549-23.987S6412.908,4863.537,6417.24,4861.286Z" transform="translate(-5344.001 172.364)" fill="#34b3aa"/>
    </g>
  </g>
</svg>
