<svg xmlns="http://www.w3.org/2000/svg" width="75.992" height="47.583" viewBox="0 0 75.992 47.583">
  <g id="dollar" transform="translate(0 -183.4)">
    <g id="Group_579" data-name="Group 579" transform="translate(0 183.4)">
      <path id="Path_16636" data-name="Path 16636" d="M198,408.3v1.472a3.875,3.875,0,0,0,3.873,3.873h52.909a3.875,3.875,0,0,0,3.873-3.873v-24.5a3.875,3.875,0,0,0-3.873-3.873H253.31v20.691a6.2,6.2,0,0,1-6.2,6.2H198Z" transform="translate(-182.662 -366.062)" fill="#34b3aa"/>
      <path id="Path_16637" data-name="Path 16637" d="M106.669,309.3H99v1.472a3.875,3.875,0,0,0,3.873,3.873h52.909a3.875,3.875,0,0,0,3.873-3.873v-24.5a3.875,3.875,0,0,0-3.873-3.873H154.31v20.691a6.2,6.2,0,0,1-6.2,6.2H106.669Z" transform="translate(-91.331 -274.731)" fill="#f84f77"/>
      <path id="Path_16638" data-name="Path 16638" d="M3.873,215.641H56.782a3.875,3.875,0,0,0,3.873-3.873v-24.5a3.875,3.875,0,0,0-3.873-3.873H3.873A3.875,3.875,0,0,0,0,187.273V211.76a3.876,3.876,0,0,0,3.873,3.881Zm19.607-16.9v-6.894a1.567,1.567,0,0,1,.209-.775,1.546,1.546,0,0,1,1.34-.775h3.8V187.95a1.55,1.55,0,1,1,3.1,0V190.3h3.238a1.549,1.549,0,1,1,0,3.1H31.924v4.578h3.633a1.556,1.556,0,0,1,1.34.767,1.574,1.574,0,0,1,.209.782V207.2a1.554,1.554,0,0,1-1.549,1.549H31.924V211.1a1.55,1.55,0,1,1-3.1,0v-2.347h-3.64a1.55,1.55,0,0,1,0-3.1h3.641V201.07h-3.8a1.554,1.554,0,0,1-1.549-1.549Z" transform="translate(0 -183.4)" fill="#002b44"/>
      <rect id="Rectangle_866" data-name="Rectangle 866" width="2.247" height="4.578" transform="translate(26.579 9.993)" fill="#3639a3"/>
      <rect id="Rectangle_867" data-name="Rectangle 867" width="2.084" height="4.578" transform="translate(31.924 17.67)" fill="#3639a3"/>
    </g>
  </g>
</svg>
