<svg id="Page-1" xmlns="http://www.w3.org/2000/svg" width="540.43" height="316" viewBox="0 0 540.43 316">
  <g id="Artboard" transform="translate(0)">
    <g id="leo-privacy" transform="translate(0)">
      <path id="Path" d="M.81,147.191a3.456,3.456,0,0,0,3.481,3.482h35.3a3.456,3.456,0,0,0,3.481-3.482V124.36a3.456,3.456,0,0,0-3.481-3.482H4.291A3.456,3.456,0,0,0,.81,124.36Z" transform="translate(492.58)" fill="#fff"/>
      <path id="Shape" d="M4.291,151.482h35.3a4.319,4.319,0,0,0,4.291-4.291V124.36a4.319,4.319,0,0,0-4.291-4.291H4.291A4.319,4.319,0,0,0,0,124.36v22.831A4.319,4.319,0,0,0,4.291,151.482Zm35.3-29.875a2.7,2.7,0,0,1,2.672,2.672V147.11a2.7,2.7,0,0,1-2.672,2.672H4.291a2.7,2.7,0,0,1-2.672-2.672V124.279a2.7,2.7,0,0,1,2.672-2.672Z" transform="translate(492.58)" fill="#d9d9d9"/>
      <path id="Path-2" data-name="Path" d="M17.084,131.97H37a.81.81,0,1,0,0-1.619H17.084a.81.81,0,1,0,0,1.619Z" transform="translate(482.378)" fill="#d9d9d9"/>
      <path id="Path-3" data-name="Path" d="M8.6,126.789c1.133-.648,1.214-1.3,1.214-1.3s.081.729,1.214,1.3a5.191,5.191,0,0,0,2.024.4,6.389,6.389,0,0,1-3.158,5.344,6.232,6.232,0,0,1-3.158-5.344A5.1,5.1,0,0,0,8.6,126.789Z" transform="translate(516.693)" fill="#dff5e3"/>
      <path id="Path-4" data-name="Path" d="M6.8,138.366H19.917a.81.81,0,1,0,0-1.619H6.8a.81.81,0,1,0,0,1.619Z" transform="translate(509.745)" fill="#d9d9d9"/>
      <path id="Path-5" data-name="Path" d="M24.127,138.366H37.162a.81.81,0,1,0,0-1.619H24.127a.765.765,0,0,0-.81.81A.811.811,0,0,0,24.127,138.366Z" transform="translate(475.173)" fill="#d9d9d9"/>
      <path id="Path-6" data-name="Path" d="M6.72,144.2H24.046a.81.81,0,0,0,0-1.62H6.8a.765.765,0,0,0-.81.81A.748.748,0,0,0,6.72,144.2Z" transform="translate(505.616)" fill="#d9d9d9"/>
      <path id="Path-7" data-name="Path" d="M27.932,144.2h8.42a.81.81,0,0,0,0-1.62h-8.42a.81.81,0,0,0,0,1.62Z" transform="translate(472.178)" fill="#d9d9d9"/>
      <path id="Path-8" data-name="Path" d="M517.517,292.764H499.3a18.106,18.106,0,0,1-18.135-18.136v-16.6a1.624,1.624,0,0,1,1.619-1.619h51.25a1.624,1.624,0,0,1,1.619,1.619v16.6A18.106,18.106,0,0,1,517.517,292.764Z" transform="translate(-480.355)" fill="#fff"/>
      <path id="Path-9" data-name="Path" d="M536.294,292.764h-21.05c-3.481,0-17-4.048-17-15.383V257.869c0-.81-4.7,12.063,11.335,26.313A34.877,34.877,0,0,0,536.294,292.764Z" transform="translate(-497.432)" fill="#f2f2f2"/>
      <path id="Path-10" data-name="Path" d="M498.167,210.991c.566-9.068,1.538-18.055,2.995-27.123a172.962,172.962,0,0,1,6.315-27.123,1.853,1.853,0,0,1,1.3-1.133,1.984,1.984,0,0,1,2.348,1.133,164.223,164.223,0,0,1,6.315,27.123c1.457,9.068,2.429,18.055,3,27.123l-2.753,45.42H498.814Z" transform="translate(-482.136)" fill="#002b44"/>
      <path id="Shape-2" data-name="Shape" d="M499.058,257.221h18.865a.8.8,0,0,0,.809-.729l2.672-45.42v-.081c-.648-9.635-1.619-18.541-3-27.2a167,167,0,0,0-6.4-27.285,2.806,2.806,0,0,0-3.319-1.619,2.538,2.538,0,0,0-1.862,1.619,167.023,167.023,0,0,0-6.4,27.285c-1.377,8.744-2.348,17.65-3,27.2v.081l.648,45.42A1.133,1.133,0,0,0,499.058,257.221Zm18.136-1.619H499.868l-.648-44.611c.648-9.554,1.619-18.379,3-27.042a172.458,172.458,0,0,1,6.315-27.042,1.073,1.073,0,0,1,.729-.567,1.212,1.212,0,0,1,1.376.567,170.5,170.5,0,0,1,6.315,27.042c1.376,8.663,2.348,17.488,3,27.042Z" transform="translate(-482.38)" fill="#333"/>
      <path id="Path-11" data-name="Path" d="M535.631,256.411c-.081-.324-.081-.567-.162-.89-1.215-7.935-3.077-15.788-4.939-23.642-2.024-8.1-4.372-16.192-7.125-24.208a167.747,167.747,0,0,0-9.958-23.884,1.706,1.706,0,0,0-2.106-.648,1.4,1.4,0,0,0-.971,1.053,164.94,164.94,0,0,0-.567,25.26c.324,8.34,1.134,16.679,2.186,24.856.972,7.125,2.024,14.25,3.482,21.374" transform="translate(-508.751)" fill="#1baaa0"/>
      <path id="Path-12" data-name="Path" d="M500.074,256.006c.324-.971.648-2.024.891-3.076,1.862-8.178,3.076-16.355,4.21-24.613,1.052-8.259,1.862-16.517,2.186-24.856a175.946,175.946,0,0,0-.567-25.261,1.546,1.546,0,0,0-1.7-1.214,1.824,1.824,0,0,0-1.3.81,188.845,188.845,0,0,0-9.958,23.884c-1.053,3.157-2.105,6.315-3.077,9.473q-2.185,7.407-4.129,14.816c-2.024,8.1-3.886,16.273-5.1,24.532-.242,1.862-.323,3.724-.4,5.667" transform="translate(-452.225)" fill="#1baaa0"/>
      <path id="Path-13" data-name="Path" d="M535.579,256.816h.162a.8.8,0,0,0,.647-.891c-1.133-7.61-8.582-36.919-13.035-48.416a181.31,181.31,0,0,0-9.958-23.965,2.428,2.428,0,0,0-3.077-1.052,2.185,2.185,0,0,0-1.457,1.781,172.168,172.168,0,0,0-.648,25.422c.324,8.016,1.053,16.193,2.186,24.937.891,6.882,2.024,14.25,3.481,21.374a.826.826,0,0,0,1.62-.324c-1.539-7.124-2.591-14.411-3.482-21.293-1.133-8.744-1.862-16.84-2.186-24.856a168.482,168.482,0,0,1,.567-25.179c0-.162.162-.324.4-.4.486-.162.971,0,1.052.324a173.666,173.666,0,0,1,9.878,23.722c4.453,11.416,11.821,40.563,12.954,48.092A1.031,1.031,0,0,0,535.579,256.816Z" transform="translate(-507.97)"/>
      <path id="Path-14" data-name="Path" d="M498.074,212.205a.8.8,0,0,0,.81-.729c.648-9.553,1.619-18.378,3-27.041a172.407,172.407,0,0,1,6.315-27.042,1.073,1.073,0,0,1,.729-.567,1.21,1.21,0,0,1,1.376.567,170.459,170.459,0,0,1,6.315,27.042c1.376,8.663,2.348,17.488,3,27.041a.814.814,0,1,0,1.619-.162c-.648-9.634-1.619-18.54-3-27.2a167,167,0,0,0-6.4-27.285,2.806,2.806,0,0,0-3.319-1.619,2.535,2.535,0,0,0-1.862,1.619,167.111,167.111,0,0,0-6.4,27.285c-1.376,8.744-2.347,17.65-2.995,27.2A.832.832,0,0,0,498.074,212.205Z" transform="translate(-482.044)"/>
      <path id="Path-15" data-name="Path" d="M481.275,256.816a.811.811,0,0,0,.809-.81,43.184,43.184,0,0,1,.4-5.586c1.3-8.582,3.32-17.084,5.1-24.37,2.186-8.582,4.453-16.436,7.125-24.127a169.464,169.464,0,0,1,9.877-23.723.724.724,0,0,1,.648-.323.9.9,0,0,1,.89.485,158,158,0,0,1,.567,25.18c-.324,8.015-1.052,16.112-2.186,24.856-.971,7.448-2.267,16.03-4.21,24.532-.243.971-.567,2.024-.891,3a.82.82,0,0,0,1.539.567c.324-1.053.647-2.024.89-3.077a246.606,246.606,0,0,0,4.21-24.693c1.134-8.745,1.863-16.922,2.186-24.937a162.056,162.056,0,0,0-.647-25.423A2.424,2.424,0,0,0,505,176.419a2.506,2.506,0,0,0-1.943,1.215,176.94,176.94,0,0,0-9.959,23.965c-2.671,7.691-5.019,15.707-7.2,24.289-1.782,7.367-3.887,15.95-5.1,24.613a46.8,46.8,0,0,0-.4,5.748A1.086,1.086,0,0,0,481.275,256.816Z" transform="translate(-452.371)"/>
      <path id="Path-16" data-name="Path" d="M524.318,256.087h.162a.84.84,0,0,0,.648-.971l-4.534-23.723a.826.826,0,0,0-1.619.324l4.534,23.722A.853.853,0,0,0,524.318,256.087Z" transform="translate(-507.64)"/>
      <path id="Path-17" data-name="Path" d="M492.5,256.816a.788.788,0,0,0,.809-.648l5.83-30.6a.826.826,0,0,0-1.619-.324l-5.83,30.6a.888.888,0,0,0,.648.972Z" transform="translate(-454.366)"/>
      <path id="Path-18" data-name="Path" d="M508.854,256.816a.765.765,0,0,0,.81-.81V193.422a.809.809,0,1,0-1.619,0v62.584A.871.871,0,0,0,508.854,256.816Z" transform="translate(-481.246)"/>
      <path id="Path-19" data-name="Path" d="M482.056,270.094h35.381a1.619,1.619,0,0,0,0-3.239H482.056a1.619,1.619,0,0,0,0,3.239Z" transform="translate(-463.03)" fill="#d9d9d9"/>
      <path id="Path-20" data-name="Path" d="M482.622,280.3h34.814a1.619,1.619,0,1,0,0-3.238H482.622a1.619,1.619,0,1,0,0,3.238Z" transform="translate(-463.596)" fill="#d9d9d9"/>
      <path id="Shape-3" data-name="Shape" d="M499.3,293.573h18.217a18.97,18.97,0,0,0,18.946-18.945v-16.6a2.386,2.386,0,0,0-2.429-2.429h-51.25a2.386,2.386,0,0,0-2.429,2.429v16.6A19.022,19.022,0,0,0,499.3,293.573Zm34.734-36.352a.764.764,0,0,1,.809.809v16.6a17.346,17.346,0,0,1-17.326,17.326H499.3a17.346,17.346,0,0,1-17.326-17.326v-16.6a.764.764,0,0,1,.81-.809Z" transform="translate(-480.355)"/>
      <path id="Path-21" data-name="Path" d="M488.937,296.569H527.8a1.62,1.62,0,1,0,0-3.239H488.937a1.624,1.624,0,0,0-1.619,1.62A1.679,1.679,0,0,0,488.937,296.569Z" transform="translate(-480.274)" fill="#f2f2f2"/>
      <path id="Path-22" data-name="Path" d="M140.148,291.468c45.663,0,111.729-76.186,111.729-213.9V69.3l-7.368-2.267s-27.932-4.048-52.3-17.65c-17.974-9.958-45.1-34.814-45.339-35.057l-6.4-6.153L129.865,8.1l3.563,5.667c-.243.243-26.556,21.212-46.23,33.6C65.337,61.127,36.919,67.2,36.676,67.281l-8.258,1.7v8.582c0,79.02,20.484,129.46,37.729,157.96C86.955,270.094,115.373,291.468,140.148,291.468Z" transform="translate(256.168)" fill="#f2f2f2"/>
      <g id="Clipped" transform="translate(252.2 15.221)">
        <g id="Group">
          <g id="Path-23" data-name="Path" transform="translate(0)">
            <line id="Line_27" data-name="Line 27" x1="288.229" transform="translate(0)" fill="none" stroke="#d9d9d9" stroke-width="1.619"/>
            <line id="Line_28" data-name="Line 28" x1="288.229" transform="translate(0.001 8.663)" fill="none" stroke="#d9d9d9" stroke-width="1.619"/>
            <line id="Line_29" data-name="Line 29" x1="288.229" transform="translate(0.001 17.326)" fill="none" stroke="#d9d9d9" stroke-width="1.619"/>
            <line id="Line_30" data-name="Line 30" x1="288.229" transform="translate(0.001 25.989)" fill="none" stroke="#d9d9d9" stroke-width="1.619"/>
            <line id="Line_31" data-name="Line 31" x1="288.229" transform="translate(0.001 34.652)" fill="none" stroke="#d9d9d9" stroke-width="1.619"/>
            <line id="Line_32" data-name="Line 32" x1="288.229" transform="translate(0.001 43.315)" fill="none" stroke="#d9d9d9" stroke-width="1.619"/>
            <line id="Line_33" data-name="Line 33" x1="288.229" transform="translate(0.001 51.979)" fill="none" stroke="#d9d9d9" stroke-width="1.619"/>
            <line id="Line_34" data-name="Line 34" x1="288.229" transform="translate(0.001 60.642)" fill="none" stroke="#d9d9d9" stroke-width="1.619"/>
            <line id="Line_35" data-name="Line 35" x1="288.229" transform="translate(0.001 69.305)" fill="none" stroke="#d9d9d9" stroke-width="1.619"/>
            <line id="Line_36" data-name="Line 36" x1="288.229" transform="translate(0.001 77.968)" fill="none" stroke="#d9d9d9" stroke-width="1.619"/>
            <line id="Line_37" data-name="Line 37" x1="288.229" transform="translate(0.001 86.55)" fill="none" stroke="#d9d9d9" stroke-width="1.619"/>
            <line id="Line_38" data-name="Line 38" x1="288.229" transform="translate(0.001 95.213)" fill="none" stroke="#d9d9d9" stroke-width="1.619"/>
            <line id="Line_39" data-name="Line 39" x1="288.229" transform="translate(0.001 103.876)" fill="none" stroke="#d9d9d9" stroke-width="1.619"/>
            <line id="Line_40" data-name="Line 40" x1="288.229" transform="translate(0.001 112.539)" fill="none" stroke="#d9d9d9" stroke-width="1.619"/>
            <line id="Line_41" data-name="Line 41" x1="288.229" transform="translate(0.001 121.202)" fill="none" stroke="#d9d9d9" stroke-width="1.619"/>
            <line id="Line_42" data-name="Line 42" x1="288.229" transform="translate(0.001 129.865)" fill="none" stroke="#d9d9d9" stroke-width="1.619"/>
            <line id="Line_43" data-name="Line 43" x1="288.229" transform="translate(0.001 138.529)" fill="none" stroke="#d9d9d9" stroke-width="1.619"/>
            <line id="Line_44" data-name="Line 44" x1="288.229" transform="translate(0.001 147.192)" fill="none" stroke="#d9d9d9" stroke-width="1.619"/>
            <line id="Line_45" data-name="Line 45" x1="288.229" transform="translate(0.001 155.855)" fill="none" stroke="#d9d9d9" stroke-width="1.619"/>
            <line id="Line_46" data-name="Line 46" x1="288.229" transform="translate(0.001 164.518)" fill="none" stroke="#d9d9d9" stroke-width="1.619"/>
            <line id="Line_47" data-name="Line 47" x1="288.229" transform="translate(0.001 173.181)" fill="none" stroke="#d9d9d9" stroke-width="1.619"/>
            <line id="Line_48" data-name="Line 48" x1="288.229" transform="translate(0.001 181.844)" fill="none" stroke="#d9d9d9" stroke-width="1.619"/>
            <line id="Line_49" data-name="Line 49" x1="288.229" transform="translate(0.001 190.507)" fill="none" stroke="#d9d9d9" stroke-width="1.619"/>
            <line id="Line_50" data-name="Line 50" x1="288.229" transform="translate(0.001 199.17)" fill="none" stroke="#d9d9d9" stroke-width="1.619"/>
            <line id="Line_51" data-name="Line 51" x1="288.229" transform="translate(0.001 207.833)" fill="none" stroke="#d9d9d9" stroke-width="1.619"/>
            <line id="Line_52" data-name="Line 52" x1="288.229" transform="translate(0.001 216.496)" fill="none" stroke="#d9d9d9" stroke-width="1.619"/>
            <line id="Line_53" data-name="Line 53" x1="288.229" transform="translate(0.001 225.159)" fill="none" stroke="#d9d9d9" stroke-width="1.619"/>
            <line id="Line_54" data-name="Line 54" x1="288.229" transform="translate(0.001 233.822)" fill="none" stroke="#d9d9d9" stroke-width="1.619"/>
            <line id="Line_55" data-name="Line 55" x1="288.229" transform="translate(0.001 242.486)" fill="none" stroke="#d9d9d9" stroke-width="1.619"/>
            <line id="Line_56" data-name="Line 56" x1="288.229" transform="translate(0.001 251.068)" fill="none" stroke="#d9d9d9" stroke-width="1.619"/>
            <line id="Line_57" data-name="Line 57" x1="288.229" transform="translate(0.001 259.731)" fill="none" stroke="#d9d9d9" stroke-width="1.619"/>
            <line id="Line_58" data-name="Line 58" x1="288.229" transform="translate(0.001 268.394)" fill="none" stroke="#d9d9d9" stroke-width="1.619"/>
          </g>
        </g>
      </g>
      <path id="Path-24" data-name="Path" d="M151.24,291.468c45.663,0,111.729-76.186,111.729-213.9v-9.23L253.9,67.2c-.243,0-26.151-3.562-50.521-17.083-17.974-9.958-45.1-35.462-45.339-35.7l-6.477-6.153L144.6,13.845c-.243.243-26.556,21.212-46.23,33.6C76.511,61.209,48.092,67.281,47.85,67.362l-8.259,1.7v8.582c0,79.02,20.484,129.461,37.729,157.96C98.047,270.094,126.465,291.468,151.24,291.468Z" transform="translate(233.903)" fill="#fff"/>
      <path id="Shape-4" data-name="Shape" d="M151.32,292.278c45.987,0,112.539-76.43,112.539-214.715v-9.23a.861.861,0,0,0-.729-.81l-9.068-1.133c-.243,0-25.989-3.481-50.278-17-17.65-9.878-44.044-34.571-45.178-35.624l-6.477-6.153a.857.857,0,0,0-1.052-.081l-6.963,5.586c-.243.243-26.475,21.131-46.149,33.519C76.267,60.318,47.929,66.39,47.687,66.471l-8.259,1.7a.788.788,0,0,0-.647.81v8.582c0,79.182,20.564,129.865,37.89,158.364C97.641,270.742,126.221,292.278,151.32,292.278ZM262.239,69.062v8.582c0,137.152-65.58,213.1-110.919,213.1-24.532,0-52.627-21.294-73.353-55.541C60.8,206.862,40.319,156.5,40.319,77.644V69.71l7.61-1.619c.324-.081,28.9-6.234,50.845-20.079,19.675-12.468,45.988-33.438,46.311-33.6l6.4-5.1,5.991,5.667c1.133,1.053,27.689,25.908,45.5,35.867,24.694,13.6,50.683,17.083,50.926,17.083Z" transform="translate(233.823)" fill="#1e120d"/>
      <path id="Path-25" data-name="Path" d="M49.954,77.644c0,135.371,62.746,203.3,101.366,203.3,36.757,0,101.366-67.6,101.366-203.3,0,0-27.689-3.562-54.246-18.3C179.171,48.578,151,22.1,151,22.1s-26.8,21.374-47.121,34.247C80.072,71.329,49.954,77.644,49.954,77.644Z" transform="translate(233.823)" fill="#002b44"/>
      <path id="Shape-5" data-name="Shape" d="M151.32,281.753c20.564,0,46.149-20.079,65.175-51.169,16.921-27.528,37-76.511,37-152.94a.861.861,0,0,0-.729-.81c-.243,0-27.851-3.724-53.922-18.217C179.9,48.092,151.886,21.779,151.563,21.537a.858.858,0,0,0-1.053-.081c-.243.243-26.961,21.536-47.04,34.167-23.4,14.816-53.435,21.132-53.678,21.212a.789.789,0,0,0-.648.81C49.145,154.4,68.9,203.137,85.5,230.5,104.6,262.079,129.783,281.753,151.32,281.753ZM251.876,78.373c-.162,75.7-20.079,124.117-36.757,151.4-18.784,30.6-43.8,50.359-63.8,50.359-20.97,0-45.664-19.35-64.528-50.521-16.436-27.122-35.948-75.377-36.11-151.32C55.217,77.239,82.5,70.762,104.28,57c18.541-11.74,42.749-30.766,46.635-33.843C154.8,26.8,180.224,50.2,197.955,59.994,222.082,73.434,247.343,77.644,251.876,78.373Z" transform="translate(233.822)" fill="#1e120d"/>
      <path id="Path-26" data-name="Path" d="M94.464,140.957l51.655-52.626a13.834,13.834,0,0,1,19.836,0l51.736,52.707a14.622,14.622,0,0,1,0,20.241L183.119,196.5a23.961,23.961,0,0,1-17.083,7.206H146.119a23.961,23.961,0,0,1-17.083-7.206L94.464,161.279A14.568,14.568,0,0,1,94.464,140.957Z" transform="translate(224.369)" fill="#1baaa0"/>
      <path id="Shape-6" data-name="Shape" d="M146.22,204.433h19.917a24.553,24.553,0,0,0,17.65-7.449l34.571-35.219a15.4,15.4,0,0,0,0-21.374L166.623,87.684A14.84,14.84,0,0,0,156.1,83.23a14.513,14.513,0,0,0-10.525,4.453L93.837,140.391a15.4,15.4,0,0,0,0,21.374l34.571,35.219A25.062,25.062,0,0,0,146.22,204.433Zm9.958-119.5a12.6,12.6,0,0,1,9.311,3.967L217.225,141.6a13.686,13.686,0,0,1,0,19.107l-34.572,35.219a22.9,22.9,0,0,1-16.516,6.963H146.22a23.094,23.094,0,0,1-16.517-6.963L95.132,160.712a13.685,13.685,0,0,1,0-19.107L146.868,88.9A12.6,12.6,0,0,1,156.178,84.931Z" transform="translate(224.268)" fill="#1e120d"/>
      <path id="Path-27" data-name="Path" d="M150.673,156.1a6.94,6.94,0,0,0,9.877,0,7.135,7.135,0,0,0,0-10.04L129.7,114.563a6.94,6.94,0,0,0-9.877,0,7.135,7.135,0,0,0,0,10.04Z" transform="translate(590.171 93.727) rotate(120)" fill="#fff" fill-rule="evenodd"/>
      <path id="Shape-7" data-name="Shape" d="M155.612,159.012h0a7.463,7.463,0,0,0,5.5-2.348,8.068,8.068,0,0,0,0-11.173L130.27,114a7.629,7.629,0,0,0-11.011,0,8.068,8.068,0,0,0,0,11.173l30.847,31.494A7.732,7.732,0,0,0,155.612,159.012Zm-30.847-45.663a6.14,6.14,0,0,1,4.372,1.862l30.847,31.495a6.355,6.355,0,0,1,0,8.906,5.873,5.873,0,0,1-4.372,1.862,6.137,6.137,0,0,1-4.372-1.862l-30.848-31.5a6.355,6.355,0,0,1,0-8.906A6.141,6.141,0,0,1,124.765,113.349Z" transform="translate(590.566 93.59) rotate(120)" fill="#1e120d"/>
      <path id="Path-28" data-name="Path" d="M150.936,187.916a6.938,6.938,0,0,0,9.877,0,7.134,7.134,0,0,0,0-10.039,6.938,6.938,0,0,0-9.877,0A7.288,7.288,0,0,0,150.936,187.916Z" transform="translate(224.652)" fill="#fff" fill-rule="evenodd"/>
      <path id="Shape-8" data-name="Shape" d="M155.935,190.75a7.467,7.467,0,0,0,5.5-2.348,8.068,8.068,0,0,0,0-11.173,7.629,7.629,0,0,0-11.011,0,8.07,8.07,0,0,0,0,11.173A7.6,7.6,0,0,0,155.935,190.75Zm0-14.169a6.14,6.14,0,0,1,4.372,1.862,6.353,6.353,0,0,1,0,8.906,6,6,0,0,1-4.372,1.862,6.133,6.133,0,0,1-4.372-1.862,6.353,6.353,0,0,1,0-8.906A6.137,6.137,0,0,1,155.935,176.581Z" transform="translate(224.592)" fill="#1e120d"/>
      <path id="Path-29" data-name="Path" d="M135.371,156.017l15.707,16.03a6.938,6.938,0,0,0,9.877,0,7.134,7.134,0,0,0,0-10.039l-15.707-16.031a6.938,6.938,0,0,0-9.877,0A7.135,7.135,0,0,0,135.371,156.017Z" transform="translate(598.146 79.914) rotate(120)" fill="#fff" fill-rule="evenodd"/>
      <path id="Shape-9" data-name="Shape" d="M156.016,174.881a7.467,7.467,0,0,0,5.505-2.348,8.068,8.068,0,0,0,0-11.173l-15.707-16.031a7.629,7.629,0,0,0-11.011,0,8.07,8.07,0,0,0,0,11.173l15.707,16.031A7.469,7.469,0,0,0,156.016,174.881Zm-15.707-30.2a6.136,6.136,0,0,1,4.372,1.862l15.707,16.031a6.353,6.353,0,0,1,0,8.906,6,6,0,0,1-4.372,1.862,6.137,6.137,0,0,1-4.372-1.862L135.937,155.45a6.353,6.353,0,0,1,0-8.906A6.133,6.133,0,0,1,140.309,144.682Z" transform="translate(598.018 80.085) rotate(120)" fill="#1e120d"/>
      <path id="Path-30" data-name="Path" d="M27.608,292.278H40.644c45.987,0,112.538-76.43,112.538-214.715V67.685l-.648-.081c-.324-.081-35.381-5.587-59.346-18.946C75.3,38.7,48.254,14.007,48.011,13.764L41.372,7.448H29.794V9.068h10.93l6.154,5.91c.243.243,27.446,25.1,45.5,35.138,22.346,12.387,54.164,18.136,59.184,18.945v8.582c0,137.152-65.58,213.1-110.919,213.1H27.608Z" transform="translate(355.671)" fill="#1e120d"/>
      <path id="Path-31" data-name="Path" d="M120.393,296.731h51.492a1.619,1.619,0,1,0,0-3.239H120.393a1.625,1.625,0,0,0-1.62,1.619A1.741,1.741,0,0,0,120.393,296.731Z" transform="translate(244.185)" fill="#f2f2f2"/>
      <path id="Path-32" data-name="Path" d="M216.294,304.827c0,3.8-13.035,10.363,58.213,10.363,22.831,0,73.028-6.315,103.471-8.339,64.608-4.372,82.663-4.048,88.817-14.087.4-.648-33.276-.486-104.524-.486-23.318,0-44.53,2.914-65.823,4.291C252.646,299.4,216.294,302.236,216.294,304.827Z" transform="translate(-145.694)" fill="#d9d9d9"/>
      <path id="Path-33" data-name="Path" d="M15.626,293.573H171.885a.809.809,0,1,0,0-1.619H15.626a.765.765,0,0,0-.81.809A.812.812,0,0,0,15.626,293.573Z" transform="translate(348.951)"/>
      <path id="Path-34" data-name="Path" d="M201.6,293.573H310.494a.809.809,0,1,0,0-1.619H201.6a.809.809,0,1,0,0,1.619Z" transform="translate(24.37)"/>
      <path id="Path-35" data-name="Path" d="M337.618,293.573H534.6a.809.809,0,0,0,0-1.619H337.618a.765.765,0,0,0-.81.809A.812.812,0,0,0,337.618,293.573Z" transform="translate(-335.756)"/>
      <path id="Path-36" data-name="Path" d="M28.093,262.159H116.91A3.161,3.161,0,0,0,120.068,259v-39.51a3.161,3.161,0,0,0-3.158-3.158h-88.9a3.161,3.161,0,0,0-3.157,3.158v39.591A3.217,3.217,0,0,0,28.093,262.159Z" transform="translate(391.539)" fill="#fff"/>
      <path id="Shape-10" data-name="Shape" d="M28.094,262.969h88.817A3.973,3.973,0,0,0,120.878,259v-39.51a3.974,3.974,0,0,0-3.967-3.968h-88.9a3.974,3.974,0,0,0-3.967,3.968v39.591A4.028,4.028,0,0,0,28.094,262.969Zm88.817-45.744a2.349,2.349,0,0,1,2.348,2.348v39.51a2.35,2.35,0,0,1-2.348,2.348h-88.9a2.35,2.35,0,0,1-2.348-2.348v-39.51a2.35,2.35,0,0,1,2.348-2.348Z" transform="translate(391.539)" fill="#9e9e9e"/>
      <path id="Path-37" data-name="Path" d="M86.388,230.422h21.7a.81.81,0,0,0,0-1.62h-21.7a.81.81,0,1,0,0,1.62Z" transform="translate(341.988)" fill="#9e9e9e"/>
      <path id="Path-38" data-name="Path" d="M49.954,230.422h27.77a.81.81,0,0,0,0-1.62H49.954a.81.81,0,0,0,0,1.62Z" transform="translate(408.784)" fill="#9e9e9e"/>
      <path id="Path-39" data-name="Path" d="M58.294,240.137h47.12a.809.809,0,1,0,0-1.619H58.294a.809.809,0,1,0,0,1.619Z" transform="translate(372.755)" fill="#9e9e9e"/>
      <path id="Path-40" data-name="Path" d="M34.247,240.137H47.2a.809.809,0,1,0,0-1.619H34.247a.809.809,0,1,0,0,1.619Z" transform="translate(455.014)" fill="#9e9e9e"/>
      <path id="Path-41" data-name="Path" d="M77.725,249.853h33.68a.81.81,0,1,0,0-1.619H77.725a.81.81,0,1,0,0,1.619Z" transform="translate(347.333)" fill="#9e9e9e"/>
      <path id="Path-42" data-name="Path" d="M34.247,249.853H66.632a.81.81,0,1,0,0-1.619H34.247a.81.81,0,1,0,0,1.619Z" transform="translate(435.583)" fill="#9e9e9e"/>
      <path id="Path-43" data-name="Path" d="M37.326,225.645c1.7-.972,1.862-2.105,1.862-2.105s.162,1.133,1.862,2.105a6.992,6.992,0,0,0,3.077.567,9.646,9.646,0,0,1-4.939,8.258,9.646,9.646,0,0,1-4.939-8.258A7.142,7.142,0,0,0,37.326,225.645Z" transform="translate(458.088)" fill="#dff5e3"/>
      <path id="Path-44" data-name="Path" d="M310.818,103.957h78.373a3.161,3.161,0,0,0,3.157-3.158V59.427a3.161,3.161,0,0,0-3.157-3.158H310.818a3.161,3.161,0,0,0-3.157,3.158V100.8A3.111,3.111,0,0,0,310.818,103.957Z" transform="translate(-295.546 -51)" fill="#fff"/>
      <path id="Shape-11" data-name="Shape" d="M310.818,104.767h78.373a3.974,3.974,0,0,0,3.967-3.968V59.427a3.973,3.973,0,0,0-3.967-3.967H310.818a3.973,3.973,0,0,0-3.967,3.967V100.8A3.974,3.974,0,0,0,310.818,104.767ZM389.191,57.16a2.35,2.35,0,0,1,2.348,2.348V100.88a2.35,2.35,0,0,1-2.348,2.348H310.818a2.35,2.35,0,0,1-2.348-2.348V59.427a2.35,2.35,0,0,1,2.348-2.348h78.373Z" transform="translate(-295.546 -51)" fill="#757575"/>
      <path id="Path-45" data-name="Path" d="M317.943,62.423c1.7-.972,1.862-2.105,1.862-2.105s.162,1.133,1.862,2.105a7,7,0,0,0,3.077.567,9.646,9.646,0,0,1-4.939,8.258,9.646,9.646,0,0,1-4.939-8.258A7,7,0,0,0,317.943,62.423Z" transform="translate(-235.147 -51)" fill="#dff5e3"/>
      <path id="Path-46" data-name="Path" d="M362.554,67.442h19.269a.81.81,0,1,0,0-1.619H362.554a.765.765,0,0,0-.81.81A.811.811,0,0,0,362.554,67.442Z" transform="translate(-339.914 -51)" fill="#757575"/>
      <path id="Path-47" data-name="Path" d="M330.816,67.442h23.966a.81.81,0,0,0,0-1.619H330.816a.765.765,0,0,0-.809.81A.811.811,0,0,0,330.816,67.442Z" transform="translate(-281.135 -51)" fill="#757575"/>
      <path id="Path-48" data-name="Path" d="M316.081,76.106h32.628a.81.81,0,1,0,0-1.619H316.081a.81.81,0,1,0,0,1.619Z" transform="translate(-260.327 -51)" fill="#757575"/>
      <path id="Path-49" data-name="Path" d="M341.5,84.769h32.548a.81.81,0,0,0,0-1.619H341.5a.764.764,0,0,0-.809.81A.811.811,0,0,0,341.5,84.769Z" transform="translate(-311.091 -51)" fill="#757575"/>
      <path id="Path-50" data-name="Path" d="M316.081,84.769h19.35a.81.81,0,1,0,0-1.619h-19.35a.81.81,0,1,0,0,1.619Z" transform="translate(-247.049 -51)" fill="#757575"/>
      <path id="Path-51" data-name="Path" d="M362.554,93.675h19.269a.81.81,0,1,0,0-1.619H362.554a.765.765,0,0,0-.81.81A.812.812,0,0,0,362.554,93.675Z" transform="translate(-339.914 -51)" fill="#757575"/>
      <path id="Path-52" data-name="Path" d="M316.162,93.675h38.62a.81.81,0,0,0,0-1.619h-38.62a.765.765,0,0,0-.809.81A.811.811,0,0,0,316.162,93.675Z" transform="translate(-266.481 -51)" fill="#757575"/>
      <path id="Path-53" data-name="Path" d="M354.782,76.106H368.3a.81.81,0,0,0,0-1.619H354.782a.765.765,0,0,0-.81.81A.812.812,0,0,0,354.782,76.106Z" transform="translate(-318.621 -51)" fill="#757575"/>
      <path id="Path-54" data-name="Path" d="M373.4,76.106h8.42a.81.81,0,1,0,0-1.619H373.4a.765.765,0,0,0-.81.81A.812.812,0,0,0,373.4,76.106Z" transform="translate(-350.763 -51)" fill="#757575"/>
      <path id="Path-55" data-name="Path" d="M249.529,37.081h67.2a3.161,3.161,0,0,0,3.157-3.158V3.967A3.161,3.161,0,0,0,316.729.81h-67.2a3.161,3.161,0,0,0-3.157,3.158V34A3.2,3.2,0,0,0,249.529,37.081Z" transform="translate(-29.795)" fill="#fff"/>
      <path id="Shape-12" data-name="Shape" d="M249.529,37.891h67.2a3.973,3.973,0,0,0,3.967-3.967V3.967A3.973,3.973,0,0,0,316.729,0h-67.2a3.973,3.973,0,0,0-3.967,3.967V34A4.012,4.012,0,0,0,249.529,37.891Zm67.2-36.272a2.35,2.35,0,0,1,2.348,2.348V34a2.35,2.35,0,0,1-2.348,2.348h-67.2A2.35,2.35,0,0,1,247.181,34V3.967a2.35,2.35,0,0,1,2.348-2.348Z" transform="translate(-29.795)" fill="#9e9e9e"/>
      <path id="Path-56" data-name="Path" d="M295.273,12.064h17.245a.81.81,0,1,0,0-1.619H295.273a.765.765,0,0,0-.809.81A.811.811,0,0,0,295.273,12.064Z" transform="translate(-71.329)" fill="#9e9e9e"/>
      <path id="Path-57" data-name="Path" d="M267.664,12.064h20.727a.81.81,0,1,0,0-1.619H267.664a.81.81,0,0,0,0,1.619Z" transform="translate(-19.593)" fill="#9e9e9e"/>
      <path id="Path-58" data-name="Path" d="M272.927,19.755h35.462a.81.81,0,1,0,0-1.619H272.927a.81.81,0,0,0,0,1.619Z" transform="translate(-44.854)" fill="#9e9e9e"/>
      <path id="Path-59" data-name="Path" d="M253.9,19.755h10.283a.81.81,0,0,0,0-1.619H253.9a.764.764,0,0,0-.809.81A.811.811,0,0,0,253.9,19.755Z" transform="translate(18.378)" fill="#9e9e9e"/>
      <path id="Path-60" data-name="Path" d="M287.015,27.447h18.7a.81.81,0,0,0,0-1.619h-18.7a.81.81,0,0,0,0,1.619Z" transform="translate(-56.27)" fill="#9e9e9e"/>
      <path id="Path-61" data-name="Path" d="M253.9,27.447h25.666a.81.81,0,0,0,0-1.619H253.9a.81.81,0,0,0,0,1.619Z" transform="translate(2.995)" fill="#9e9e9e"/>
      <path id="Path-62" data-name="Path" d="M256.249,6.315c1.7-.972,1.862-2.105,1.862-2.105s.162,1.133,1.862,2.105a7,7,0,0,0,3.077.567,9.646,9.646,0,0,1-4.939,8.258,9.646,9.646,0,0,1-4.939-8.258A5.927,5.927,0,0,0,256.249,6.315Z" transform="translate(20.241)" fill="#dff5e3"/>
      <path id="Path-63" data-name="Path" d="M237.838,99.666a17.722,17.722,0,0,1,35.381-1.538,2.241,2.241,0,0,0,.081.729,18.792,18.792,0,0,0,5.667,12.307c3.32,3.319,8.178,6.234,7.692,15.14-.729,12.063-9.068,16.678-18.136,17.164C258.16,144.2,238.486,142.414,237.838,99.666Z" transform="translate(11.933)" fill="#333"/>
      <path id="Path-64" data-name="Path" d="M334.328,135.29c-13.035,2.024-22.346,12.954-26.394,25.26-3.886,11.821-8.663,38.944-8.663,38.944l-54.408,8.258,15.869,15.707,44.044-4.534a17.4,17.4,0,0,0,13.116-9.149c8.583-16.355,25.342-47.2,23.561-63.88C340.805,140.309,338.943,134.561,334.328,135.29Z" transform="translate(-49.986)" fill="#fff"/>
      <path id="Path-65" data-name="Path" d="M318.863,149.539c-13.035,2.024-19.107,9.959-22.265,22.508-2.833,11.092-4.858,25.584-5.91,34.571a9.139,9.139,0,0,1-9.23,8.016l-36.514,3.886L246,224.268l41.615-5.424a17.4,17.4,0,0,0,13.116-9.149c8.583-16.355,25.342-47.2,23.561-63.88C323.721,140.309,323.478,148.81,318.863,149.539Z" transform="translate(-32.902)" fill="#d9d9d9"/>
      <path id="Path-66" data-name="Path" d="M297.517,220.787a.975.975,0,0,0,.81-.567c1.862-6.8.081-11.739-1.781-14.573a13.869,13.869,0,0,0-4.615-4.7.82.82,0,1,0-.891,1.376c.4.243,8.987,5.668,5.668,17.488a.833.833,0,0,0,.566.972Z" transform="translate(-53.332)" fill="#34b151"/>
      <path id="Shape-13" data-name="Shape" d="M256.644,225h.081l37.648-4.858a56.615,56.615,0,0,0,8.5-1.133,17.978,17.978,0,0,0,11.092-9.068l1.295-2.51c8.987-17.083,24.128-45.744,22.346-61.856-.4-3.562-1.376-8.177-4.048-10.282a4.865,4.865,0,0,0-3.967-.972c-12.145,1.862-21.455,10.525-25.989,24.37-3.563,10.849-8.825,35.867-9.635,39.834l-49.226,8.42a1.257,1.257,0,0,0-.647.486.959.959,0,0,0,.081.81L256,224.511C256.077,224.916,256.32,225,256.644,225Zm37.648-6.477h-.081L257.049,223.3l-10.768-14.816,48.5-8.259a.878.878,0,0,0,.647-.647c.081-.324,5.911-28.581,9.716-40.239,4.372-13.278,13.2-21.537,24.694-23.318a3.627,3.627,0,0,1,2.753.648c1.7,1.295,2.914,4.615,3.481,9.149,1.7,15.626-13.278,43.963-22.184,60.884l-1.3,2.51a16.891,16.891,0,0,1-10.121,8.258A49.18,49.18,0,0,1,294.292,218.52Z" transform="translate(-45.33)" fill="#333"/>
      <path id="Path-67" data-name="Path" d="M329.657,207.428l58.7,15.869-15.626-47.121c-1.214-3.4-3.886-4.129-6.315-4.615l-55.7-12.306c-1.943-.4-3.076.648-2.752,3.158.242,1.781.971,3.967,2.833,8.258l15.059,33.519A5.648,5.648,0,0,0,329.657,207.428Z" transform="translate(-159.796)" fill="#fff"/>
      <path id="Path-68" data-name="Path" d="M379.394,208.966c-2.914-8.906-6.558-20.159-9.8-30.442a5.51,5.51,0,0,0-4.129-4.21L307.9,161.522s.243-2.753,2.51-2.348c7.853,1.538,37.81,8.42,53.112,11.74,8.582,1.862,8.177,2.833,8.744,3.562,1.376,1.7,16.6,48.9,16.6,48.9l-58.7-15.869a5.858,5.858,0,0,1-3.806-3.238l-.971-2.106c11.092,3.4,37,9.149,37,9.149-.89-4.048,3.482-4.372,7.611-3.481C372.755,208.481,377.532,208.4,379.394,208.966Z" transform="translate(-160.308)" fill="#d9d9d9"/>
      <path id="Path-69" data-name="Path" d="M351.962,192.522c-.949-2.6-.457-5.176,1.1-5.742s3.584,1.087,4.533,3.692.457,5.176-1.1,5.742S352.91,195.127,351.962,192.522Z" transform="translate(-173.092)" fill="#fff"/>
      <path id="Shape-14" data-name="Shape" d="M356,197.146a2.911,2.911,0,0,0,.891-.162c2.024-.729,2.672-3.725,1.538-6.8s-3.562-4.939-5.586-4.21-2.672,3.724-1.539,6.8a7.882,7.882,0,0,0,2.267,3.4A4.268,4.268,0,0,0,356,197.146Zm-2.186-9.716c.972,0,2.348,1.215,3.158,3.32.89,2.347.4,4.372-.567,4.7a1.755,1.755,0,0,1-1.7-.566,6.764,6.764,0,0,1-1.781-2.753c-.891-2.348-.4-4.372.566-4.7Z" transform="translate(-173.261)" fill="#333"/>
      <path id="Path-70" data-name="Path" d="M318.024,219.33a.3.3,0,0,0,.243-.081.81.81,0,0,0,.486-1.053l-3.724-11.173a.82.82,0,0,0-1.539.567l3.725,11.173A.973.973,0,0,0,318.024,219.33Z" transform="translate(-95.78)" fill="#333"/>
      <path id="Shape-15" data-name="Shape" d="M388.79,224.188a.735.735,0,0,0,.567-.243.773.773,0,0,0,.162-.81l-15.626-47.121c-1.376-3.805-4.129-4.615-6.882-5.1l-55.622-12.307a3.224,3.224,0,0,0-4.129,3.886c.243,1.7,1.134,3.806,2.753,7.287l.567,1.3,15.059,33.518a6.643,6.643,0,0,0,4.291,3.644l58.7,15.869C388.628,224.188,388.709,224.188,388.79,224.188Zm-78.453-64.123a1.784,1.784,0,0,1,.648.081l55.7,12.306c2.51.486,4.615,1.133,5.749,4.048l15.14,45.663-57.241-15.545a4.817,4.817,0,0,1-3.239-2.752L311.47,169.051c-1.457-3.4-2.348-5.424-2.59-6.881a2.059,2.059,0,0,1,.4-1.782C309.446,160.146,309.851,160.065,310.337,160.065Z" transform="translate(-160.312)" fill="#333"/>
      <path id="Path-71" data-name="Path" d="M327.092,198.441h.243a.927.927,0,0,0,.567-1.052l-5.91-18.784a.846.846,0,1,0-1.62.486l5.911,18.783A.8.8,0,0,0,327.092,198.441Z" transform="translate(-111.811)" fill="#333"/>
      <path id="Path-72" data-name="Path" d="M204.677,96.1A17.686,17.686,0,0,1,223.46,78.372c8.744.486,16.274,17.326,16.274,17.569a14.889,14.889,0,0,0,5.991,11.658c3.724,2.834,9.716,5.911,9.716,15.869,0,12.064-11.092,15.95-20.16,16.517C225,140.633,205.243,138.852,204.677,96.1Z" transform="translate(76.346)" fill="#333"/>
      <path id="Path-73" data-name="Path" d="M258.265,265.8,196.49,232.689l8.177-43.64c-.567-4.372-5.668-4.938-2.915-17,.81-3.643,3.4-7.287,4.615-10.768,4.615-13.278,9.959-23.965,15.788-25.423l20.322-5.586c27.932,2.834,39.267,17.65,34.49,49.469l-7.125,37.89Z" transform="translate(61.944)" fill="#fff"/>
      <path id="Path-74" data-name="Path" d="M270.337,189.13l-8.744,7.206.081-9.068Z" transform="translate(4.533)" fill="#f2f2f2"/>
      <path id="Path-75" data-name="Path" d="M244.995,230.1a323.149,323.149,0,0,0,18.46-35.786l.324.081s-14.412,33.681-19.188,41.534c-.567.891-1.134,1.943-1.782,3.077a12.683,12.683,0,0,1-17,5.02l-17.812-7.773.324-.567,16.84,4.615C225.321,240.461,238.194,241.6,244.995,230.1Z" transform="translate(64.689)" fill="#d9d9d9"/>
      <path id="Path-76" data-name="Path" d="M239.426,122.74l3.887-11.577,1.943-1.134s1.295,13.2,3.319,17.083c.891,1.7,5.425,5.425,5.425,5.425a38.136,38.136,0,0,1-15.869,14.573c-3,1.377-15.95,2.591-9.8-9.23l-1.133-5.1a17.523,17.523,0,0,0,2.024-.324C234.73,131.322,238.212,125.493,239.426,122.74Z" transform="translate(55.765)" fill="#fff"/>
      <path id="Path-77" data-name="Path" d="M244.022,135.452c0-.486-.324-1.3-1.538-2.348l-2.753-11.173,15.221-8.825s1.7,7.691.4,11.82c-2.429,7.692-6.963,9.554-10.768,10.93A.409.409,0,0,1,244.022,135.452Z" transform="translate(40.887)" fill="#d9d9d9"/>
      <path id="Path-78" data-name="Path" d="M243.076,89.06c13.44,18.7,29.632,11.739,29.632,11.739l4.372-.647a7.342,7.342,0,0,1,3.887,5.586,7.08,7.08,0,0,1-5.992,8.015l-1.7.324-2.915,8.663c-1.214,2.753-4.776,8.582-10.12,9.716-.729.162-1.376.243-2.024.324-11.092,1.295-17.488-6.153-22.832-19.593-1.538-3.806-3.724-11.416-4.777-15.14h.162C234.17,97.48,243.076,89.06,243.076,89.06Z" transform="translate(24.832)" fill="#fff"/>
      <path id="Path-79" data-name="Path" d="M266.613,133.913a20.129,20.129,0,0,0,5.263-.728c5.829-1.539,10.768-7.935,11.658-12.954a.888.888,0,0,0-.647-.972.84.84,0,0,0-.972.648c-.809,4.534-5.262,10.282-10.525,11.658-9.8,2.672-17.731-2.671-22.265-14.978-2.105-5.748-7.853-21.455-8.1-22.265a.746.746,0,0,0-.891-.567.8.8,0,0,0-.648.891c.081.4,8.1,22.265,8.1,22.508C251.716,128.165,258.274,133.913,266.613,133.913Z" transform="translate(13.439)" fill="#333"/>
      <path id="Path-80" data-name="Path" d="M232.553,114.563h.081a7.311,7.311,0,0,0,5.1-3,8.5,8.5,0,0,0,1.538-5.91,8.033,8.033,0,0,0-2.915-5.343,7.726,7.726,0,0,0-5.748-1.7.814.814,0,1,0,.162,1.62,5.8,5.8,0,0,1,4.534,1.295,6.7,6.7,0,0,1,2.348,4.291,6.377,6.377,0,0,1-1.215,4.7,5.937,5.937,0,0,1-4.048,2.429.949.949,0,0,0-.729.89A1.031,1.031,0,0,0,232.553,114.563Z" transform="translate(67.254)" fill="#333"/>
      <path id="Path-81" data-name="Path" d="M231.071,75.944c8.663-3.32,17.164-9.149,31.171-9.878,28.094-1.457,31.009,23.641,31.009,31.819L279,100.071l-4.372.647S258.436,107.681,245,88.979c0,0-8.906,8.42-12.307,8.906h-.162a10.751,10.751,0,0,1-10.039-4.129C218.6,88.736,219.007,80.559,231.071,75.944Z" transform="translate(22.911)" fill="#333"/>
      <path id="Path-82" data-name="Path" d="M263.2,120.959h.243l3.886-1.214a.928.928,0,0,0,.567-1.053.881.881,0,0,0-.972-.567l-2.915.891-.566-5.343a.814.814,0,0,0-1.62.161l.729,6.316a.682.682,0,0,0,.324.566C262.872,120.878,263.034,120.959,263.2,120.959Z" transform="translate(6.735)" fill="#333"/>
      <path id="Path-83" data-name="Path" d="M265.675,218.52c3.724-5.748,10.444-12.145,17.245-11.011,0,0,102.985,35.219,105.819,36.11,45.663,14.492,32.871,53.6,17.731,53.6,0,0-29.066,3.158-57-13.278-25.666-15.059-62.5-33.68-62.5-33.68L240.09,286.124s-9.391-2.348-11.011-6.072C229,279.971,256.526,232.769,265.675,218.52Z" transform="translate(-113.059)" fill="#fff"/>
      <path id="Path-84" data-name="Path" d="M430.4,284.262l-7.772,11.011s-17.812,1.862-20.16-2.186L414.775,277.7Z" transform="translate(-296.407)" fill="#fff"/>
      <path id="Path-85" data-name="Path" d="M417.042,284.262l-6.234,10.2s-5.424.566-8.339,0l7.61-9.554Z" transform="translate(-283.048)" fill="#d9d9d9"/>
      <path id="Path-86" data-name="Path" d="M465.874,294.787v10.93a4.009,4.009,0,0,1-4.048,4.049H413.409c-3.886,0-6.558-4.291-4.453-7.611a2.86,2.86,0,0,1,1.782-1.457c3.643-.972,31.09-11.5,31.09-11.5s2.429,3.805,13.2,5.02C457.373,294.383,465.874,294.787,465.874,294.787Z" transform="translate(-337.629)" fill="#fff"/>
      <path id="Path-87" data-name="Path" d="M421.9,294.787v10.93a4.009,4.009,0,0,1-4.048,4.049l-9.635-.081V293.654C414.772,295.111,422.059,294.625,421.9,294.787Z" transform="translate(-293.651)" fill="#d9d9d9"/>
      <path id="Path-88" data-name="Path" d="M405.465,295.354a1,1,0,0,0,.647-.324l4.453-6.639a.819.819,0,0,0-1.376-.89l-4.453,6.639a.8.8,0,0,0,.243,1.133C405.141,295.273,405.3,295.354,405.465,295.354Z" transform="translate(-278.838)" fill="#333"/>
      <path id="Path-89" data-name="Path" d="M420.28,291.144a.737.737,0,0,0,.648-.324l7.044-8.744a.809.809,0,0,0-1.3-.971l-7.044,8.744a.791.791,0,0,0,.162,1.133A1.152,1.152,0,0,0,420.28,291.144Z" transform="translate(-311.142)" fill="#333"/>
      <path id="Path-90" data-name="Path" d="M432.236,293.9s1.943-2.267,2.51-3.077c1.3-1.7,1.781-3.157,0-4.291a16.364,16.364,0,0,0-3.967-1.214,2.31,2.31,0,0,0-1.943.485l-4.939,6.316" transform="translate(-323.341)" fill="#fff"/>
      <path id="Path-91" data-name="Path" d="M432.219,294.706a.735.735,0,0,0,.647-.323c.081-.081,1.944-2.267,2.51-3.077.729-1.053,1.539-2.267,1.3-3.482a2.789,2.789,0,0,0-1.539-1.943,15.29,15.29,0,0,0-4.21-1.3,3.181,3.181,0,0,0-2.671.729l-4.939,4.776a.8.8,0,0,0,1.133,1.134l4.939-4.7a1.354,1.354,0,0,1,1.214-.324,15.915,15.915,0,0,1,3.725,1.134,1.587,1.587,0,0,1,.809.89,3.757,3.757,0,0,1-.971,2.186c-.567.729-2.429,3-2.429,3a.781.781,0,0,0,.081,1.133A.619.619,0,0,0,432.219,294.706Z" transform="translate(-323.323)" fill="#333"/>
      <path id="Path-92" data-name="Path" d="M409.108,305.151h49.064a.81.81,0,0,0,0-1.62H409.108a.81.81,0,0,0,0,1.62Z" transform="translate(-330.816)" fill="#333"/>
      <path id="Path-93" data-name="Path" d="M275.719,227.669c3.725-5.749,12.955-18.055,19.755-17,0,0,83.717,24.856,86.55,25.747,12.874,4.048,23.48,13.926,27.447,20.726,10.282,17.327,2.51,40-8.339,40,0,0-22.913,3.158-50.926-13.278-25.666-15.059-62.5-33.68-62.5-33.68l-42.02,37.971s-6.8-1.619-9.716-3.724C235.885,284.424,266.571,242,275.719,227.669Z" transform="translate(-113.793)" fill="#d9d9d9"/>
      <path id="Shape-16" data-name="Shape" d="M402.515,298.188a32,32,0,0,0,4.777-.243c6.477-.081,12.387-7.853,13.763-18.136,2.267-16.435-6.72-37.162-38.781-46.068-2.834-.81-91.408-26.8-92.3-27.042h-.081c-7.125-1.133-14.169,5.425-18.055,11.416-9.068,14.169-36.434,61.047-36.676,61.532a.787.787,0,0,0-.081.729c1.7,3.967,14.978,8.1,16.435,8.582a1,1,0,0,0,.81-.162l41.615-37.567c4.453,2.267,38.215,19.512,62.018,33.438C376.364,296.569,394.257,298.188,402.515,298.188Zm-112.944-89.95c2.51.728,89.464,26.313,92.217,27.041,31.009,8.664,39.753,28.58,37.648,44.287-1.295,9.392-6.639,16.76-12.225,16.76h-.081c-.243,0-22.994,2.914-50.359-13.2-25.423-14.9-62.18-33.519-62.585-33.762a.869.869,0,0,0-.891.081L251.6,287.1c-5.182-1.619-13.2-4.858-14.816-7.206,2.672-4.615,27.851-47.687,36.433-61.127C276.779,213.338,283.256,207.266,289.571,208.238Z" transform="translate(-119.953)" fill="#333"/>
      <path id="Path-94" data-name="Path" d="M414.513,310.494h47.526a4.872,4.872,0,0,0,4.857-4.857v-10.93a.811.811,0,0,0-.809-.81c-.081,0-7.53-.324-9.878-.648-3.886-.486-5.748-.728-6.639-.971a.708.708,0,0,0-.89-.567c-1.053.081-1.3.567-1.3.971,0,.81,0,1.215,8.582,2.186,1.944.243,7.287.486,9.23.567v10.2a3.247,3.247,0,0,1-3.238,3.238H414.432a5.068,5.068,0,0,1-4.291-2.51,3.581,3.581,0,0,1,0-3.8,3.9,3.9,0,0,1,1.781-1.214c3.644-.972,26.151-9.635,27.042-10.04a.82.82,0,1,0-.567-1.538c-.243.081-23.4,8.987-26.96,9.958a4.983,4.983,0,0,0-2.753,1.943,5.053,5.053,0,0,0,0,5.425A7.2,7.2,0,0,0,414.513,310.494Z" transform="translate(-338.327)" fill="#333"/>
      <path id="Path-95" data-name="Path" d="M417.123,293.087l-4.372,8.825s-18.216,1.053-20.564-2.995l9.553-11.578Z" transform="translate(-272.847)" fill="#fff"/>
      <path id="Path-96" data-name="Path" d="M453.081,300.212v10.93a4.009,4.009,0,0,1-4.048,4.048H400.617c-3.886,0-6.558-4.291-4.453-7.61a2.86,2.86,0,0,1,1.781-1.458c3.643-.971,31.09-11.5,31.09-11.5s2.429,3.806,13.2,5.02C444.661,299.807,453.081,300.212,453.081,300.212Z" transform="translate(-312.044)" fill="#fff"/>
      <path id="Shape-17" data-name="Shape" d="M400.709,316h48.416a4.872,4.872,0,0,0,4.858-4.858v-10.93a.812.812,0,0,0-.81-.81c-.081,0-8.5-.323-10.849-.647-10.12-1.215-12.63-4.615-12.63-4.7a.809.809,0,0,0-.972-.324c-.243.081-27.446,10.525-31.009,11.5a3.868,3.868,0,0,0-2.267,1.862,5.628,5.628,0,0,0-.081,5.748A6.332,6.332,0,0,0,400.709,316Zm51.654-15.059v10.12a3.248,3.248,0,0,1-3.238,3.239H400.709a4.3,4.3,0,0,1-3.8-2.267,3.985,3.985,0,0,1,.081-4.13,2.406,2.406,0,0,1,1.3-1.133c3.4-.972,26.637-9.878,30.6-11.335,1.134,1.134,4.615,3.886,13.359,4.858C444.267,300.617,450.258,300.86,452.363,300.941Z" transform="translate(-312.135)" fill="#333"/>
      <path id="Path-97" data-name="Path" d="M392.105,300.86a.966.966,0,0,0,.729-.4l3.8-6.4a.82.82,0,1,0-1.376-.891l-3.8,6.4a.873.873,0,0,0,.242,1.134A.619.619,0,0,0,392.105,300.86Z" transform="translate(-251.634)" fill="#333"/>
      <path id="Path-98" data-name="Path" d="M407.894,296.65a.735.735,0,0,0,.647-.324l7.044-8.744a.81.81,0,1,0-1.295-.972l-7.044,8.744a.792.792,0,0,0,.162,1.134A1.151,1.151,0,0,0,407.894,296.65Z" transform="translate(-286.368)" fill="#333"/>
      <path id="Path-99" data-name="Path" d="M419.848,299.4s1.943-2.267,2.51-3.076c1.3-1.7,1.781-3.158,0-4.291a16.375,16.375,0,0,0-3.967-1.215,2.306,2.306,0,0,0-1.943.486l-4.939,6.315" transform="translate(-298.566)" fill="#fff"/>
      <path id="Path-100" data-name="Path" d="M419.832,300.212a.737.737,0,0,0,.648-.324c.081-.081,1.943-2.267,2.51-3.076.728-1.053,1.538-2.267,1.3-3.482a2.788,2.788,0,0,0-1.538-1.943,15.232,15.232,0,0,0-4.21-1.295,3.185,3.185,0,0,0-2.672.728l-4.939,4.777a.8.8,0,1,0,1.133,1.134l4.939-4.7a1.356,1.356,0,0,1,1.215-.324,15.931,15.931,0,0,1,3.724,1.133,1.59,1.59,0,0,1,.81.891,3.761,3.761,0,0,1-.972,2.186c-.567.729-2.429,3-2.429,3a.782.782,0,0,0,.081,1.133A.619.619,0,0,0,419.832,300.212Z" transform="translate(-298.549)" fill="#333"/>
      <path id="Path-101" data-name="Path" d="M397.935,310.656h47.849a.81.81,0,1,0,0-1.619H397.935a.81.81,0,1,0,0,1.619Z" transform="translate(-307.256)" fill="#333"/>
      <path id="Path-102" data-name="Path" d="M354.753,233.741c-33.924-9.472-75.62-20.645-75.62-20.645A18.349,18.349,0,0,0,261.4,220.22l-46.068,65.9a69.6,69.6,0,0,0,19.108,7.367s.566-.648,30.928-21.86c17.164-11.982,21.7-21.455,21.7-21.455L349,287.906a63.517,63.517,0,0,0,33.114,9.311c15.059,0,28.094-13.926,27.365-31.414,0,0-19.755-15.545-26.96-19.755C375.966,242.242,354.753,233.741,354.753,233.741Z" transform="translate(-88.384)" fill="#fff"/>
      <path id="Path-103" data-name="Path" d="M350.947,279c-34.571-6.72-75.377-38.539-75.377-38.539-6.8-1.134-15.707,13.6-26.394,21.212l-33.923,29.309a64.053,64.053,0,0,0,7.61,2.591s.567-.648,30.928-21.86c17.164-11.983,21.7-21.455,21.7-21.455l61.937,37.728A63.513,63.513,0,0,0,370.54,297.3c15.059,0,28.095-13.925,27.366-31.414,0,0-2.591-4.21-9.8-8.42C388.028,257.382,391.834,287.015,350.947,279Z" transform="translate(-76.725)" fill="#f2f2f2"/>
      <path id="Path-104" data-name="Path" d="M381.789,298.026a26.876,26.876,0,0,0,19.512-8.663,32.136,32.136,0,0,0,8.663-23.641.81.81,0,1,0-1.619,0,30.367,30.367,0,0,1-8.178,22.426,25.232,25.232,0,0,1-18.3,8.178,62.635,62.635,0,0,1-32.629-9.149L287.3,249.448a.858.858,0,0,0-.647-.081.83.83,0,0,0-.486.4c-.081.081-4.7,9.392-21.455,21.131-17.327,12.064-28.419,19.917-30.686,21.618a71.66,71.66,0,0,1-17.731-6.8l45.583-65.176a17.655,17.655,0,0,1,17-6.8c.243.081,27.2,6.639,54.65,14.412,9.8,2.833,18.7,5.748,26.475,8.744a.82.82,0,0,0,.567-1.539c-7.772-2.995-16.678-5.991-26.556-8.825-27.446-7.853-54.488-14.411-54.731-14.492a19.478,19.478,0,0,0-18.622,7.449L214.6,285.4a.872.872,0,0,0-.162.647c.081.243.162.4.4.486a69.535,69.535,0,0,0,19.35,7.449.826.826,0,0,0,.729-.162c.243-.162,2.672-2.105,30.928-21.779,14.573-10.2,20.079-18.46,21.617-20.97l61.209,37.243A59.587,59.587,0,0,0,381.789,298.026Z" transform="translate(-87.973)" fill="#333"/>
      <path id="Path-105" data-name="Path" d="M342.881,250.986a.849.849,0,0,0,.728-.4.819.819,0,0,0-.323-1.133l-5.182-2.834a.834.834,0,1,0-.81,1.457l5.182,2.834A.73.73,0,0,0,342.881,250.986Z" transform="translate(-144.116)" fill="#333"/>
      <path id="Path-106" data-name="Path" d="M259.111,266.612h.243a.926.926,0,0,0,.567-.648c1.7-8.339,4.129-19.107,6.315-28.58,1.134-4.938,2.1-9.391,2.834-12.711l.243-.971c6.234-28.419,7.853-36.029,8.825-48.336,1.943-25.26-5.587-32.709-12.793-37.728-10.039-6.963-19.107-7.368-19.512-7.368a.81.81,0,0,0,0,1.619,38.4,38.4,0,0,1,18.622,7.125c6.882,4.777,14.007,11.9,12.063,36.272-.971,12.144-2.59,19.755-8.825,48.092l-.242.971c-.729,3.32-1.7,7.773-2.834,12.712-2.024,8.986-4.291,19.026-5.991,27.2-4.211-3.886-20.727-18.136-41.211-25.908-10.768-4.129-17.65-6.477-19.755-7.206,4.453-17.812,8.016-42.829,7.287-44.206-5.425-9.068-2.186-15.788.567-21.7a26.74,26.74,0,0,0,2.59-7.044.8.8,0,0,0-.728-.89.765.765,0,0,0-.891.728,23.465,23.465,0,0,1-2.429,6.558c-2.833,5.992-6.315,13.359-.567,23.075.081,2.1-2.671,24.694-7.529,43.8a.88.88,0,0,0,.567.972c.081,0,7.367,2.429,20.4,7.448,23.48,8.906,41.616,26.394,41.778,26.556C258.707,266.531,258.868,266.612,259.111,266.612Z" transform="translate(62.07)" fill="#333"/>
      <path id="Path-107" data-name="Path" d="M233.136,148.487c5.829,0,11.335-2.753,15.869-8.016a35.089,35.089,0,0,0,5.343-8.339.785.785,0,0,0-.081-.728c-.162-.243-.324-.405-.567-.405,0,0-2.752-.567-5.181-6.073a23.328,23.328,0,0,1-1.7-11.658.826.826,0,1,0-1.62-.324,23.15,23.15,0,0,0,1.781,12.549c1.944,4.453,4.13,6.153,5.425,6.72-1.538,3.158-8.177,15.059-20,14.655a4.606,4.606,0,0,1-4.129-2.267c-.972-1.782-.567-4.372,1.133-6.963a.82.82,0,1,0-1.376-.891c-1.943,3-2.429,6.234-1.214,8.582a6.074,6.074,0,0,0,5.5,3.158Z" transform="translate(55.902)" fill="#333"/>
      <path id="Path-108" data-name="Path" d="M255.883,143.3a.859.859,0,0,0,.809-.729,16.071,16.071,0,0,1,2.591-6.315.82.82,0,0,0-1.376-.891,17.128,17.128,0,0,0-2.834,6.963.765.765,0,0,0,.729.891A.079.079,0,0,0,255.883,143.3Z" transform="translate(21.983)" fill="#333"/>
      <path id="Path-109" data-name="Path" d="M238.412,153.425c9.23,0,15.545-5.424,19.431-10.444a.809.809,0,1,0-1.295-.971c-4.13,5.343-11.335,11.253-22.1,9.391a9.539,9.539,0,0,1-5.83-3.562.781.781,0,0,0-1.133-.162.857.857,0,0,0-.162,1.134,11.578,11.578,0,0,0,6.882,4.21A26.453,26.453,0,0,0,238.412,153.425Z" transform="translate(51.274)" fill="#333"/>
      <path id="Path-110" data-name="Path" d="M253.205,143.3h0a.833.833,0,0,0,.81-.891,25.613,25.613,0,0,0-2.753-9.715.833.833,0,0,0-1.457.809,24.189,24.189,0,0,1,2.51,9.068A1.031,1.031,0,0,0,253.205,143.3Z" transform="translate(32.757)" fill="#333"/>
      <path id="Path-111" data-name="Path" d="M304.03,221.273a.8.8,0,0,0,.81-.729c1.052-17.407-8.583-18.7-8.987-18.783a.814.814,0,1,0-.162,1.619c.323.081,8.5,1.295,7.529,17.083A.868.868,0,0,0,304.03,221.273Z" transform="translate(-63.407)" fill="#333"/>
      <path id="Path-112" data-name="Path" d="M272.2,117.478a1.652,1.652,0,0,1-2.105-.972L269.2,114a1.639,1.639,0,1,1,3.076-1.133l.891,2.51A1.684,1.684,0,0,1,272.2,117.478Z" transform="translate(-5.91)" fill="#333"/>
      <path id="Path-113" data-name="Path" d="M263.535,113.591a1.656,1.656,0,0,1-2.186-.809l-1.133-2.429a1.648,1.648,0,0,1,3-1.376l1.133,2.428A1.6,1.6,0,0,1,263.535,113.591Z" transform="translate(11.902)" fill="#333"/>
      <path id="Path-114" data-name="Path" d="M272.615,108.9a.708.708,0,0,0,.728-.486c.486-1.134,1.943-.729,2.024-.648a.8.8,0,1,0,.4-1.538c-1.052-.324-3.238-.4-3.967,1.619a.779.779,0,0,0,.486,1.053Z" transform="translate(-11.67)" fill="#333"/>
      <path id="Path-115" data-name="Path" d="M263.053,105.414a.967.967,0,0,0,.729-.4c1.133-1.862,2.509-1.3,2.752-1.214a.774.774,0,0,0,1.053-.324.714.714,0,0,0-.324-1.052c-.972-.567-3.32-.891-4.939,1.781a.871.871,0,0,0,.243,1.133A2.864,2.864,0,0,1,263.053,105.414Z" transform="translate(6.555)" fill="#333"/>
      <path id="Path-116" data-name="Path" d="M252.814,123.145c4.534,0,7.287-3.886,8.177-6.315a.82.82,0,0,0-1.538-.567c-.081.243-2.591,6.558-8.42,5.02a.8.8,0,1,0-.405,1.538A6.816,6.816,0,0,0,252.814,123.145Z" transform="translate(25.376)" fill="#333"/>
      <path id="Path-117" data-name="Path" d="M204.044,213.014s-1.134-2.347,1.133-3.157c.243-.081,6.477.81,11.74.971a42.611,42.611,0,0,0,7.529-.566l-1.052-3.725c3.886.4,12.873,7.773,12.873,7.773l49.469-.486h1.781l3.238-8.663,11.254-30.28c3.239-13.035,3.563-25.261,12.064-28.9,20.16-8.5,25.18,18.783,20.079,33.357-1.7,4.938-3.724,9.958-5.91,14.978a323.5,323.5,0,0,1-18.46,35.786c-6.882,11.416-19.755,10.282-19.755,10.282l-16.841-4.615-32.547-8.987-33.923-9.149s-4.858-1.133-5.992-2.509C200.077,214.391,201.291,212.853,204.044,213.014Z" transform="translate(-0.097)" fill="#fff"/>
      <path id="Path-118" data-name="Path" d="M256.644,237.627a.966.966,0,0,0,.729-.4c6.234-10.93.971-22.669.809-23.155a.8.8,0,1,0-1.457.648c.081.081,5.1,11.5-.729,21.7a.818.818,0,0,0,.324,1.133A.487.487,0,0,0,256.644,237.627Z" transform="translate(20.17)" fill="#34b151"/>
      <path id="Path-119" data-name="Path" d="M253.418,215.2h2.834l40.887-.486a.82.82,0,0,0,.728-.486c.567-1.538,14.088-37.162,16.517-50.116a.826.826,0,0,0-1.62-.324c-2.186,11.982-14.573,44.854-16.273,49.307l-40.32.485h-1.133c-2.025,0-5.911,0-8.016-.162a3.847,3.847,0,0,1-1.7-.566c-6.072-4.049-10.444-6.4-13.035-7.044a.8.8,0,1,0-.4,1.538c1.7.4,5.263,1.943,12.549,6.8a5.511,5.511,0,0,0,2.51.891C248.641,215.12,251.313,215.2,253.418,215.2Z" transform="translate(-9.233)" fill="#333"/>
      <path id="Path-120" data-name="Path" d="M314.77,214.634a.853.853,0,0,0,.809-.648.832.832,0,0,0-.566-.971c-.81-.162-1.782-.567-1.7-1.3a.619.619,0,0,1,.162-.4,2.426,2.426,0,0,1,1.619-.324,2.137,2.137,0,0,1,.567.081c9.068,1.134,14.817,1.377,17.245.567a.845.845,0,1,0-.485-1.619c-1.539.486-5.587.729-16.6-.648a2.874,2.874,0,0,1-.567-.081,3.69,3.69,0,0,0-2.914.729,2.037,2.037,0,0,0-.729,1.619c0,.81.4,2.267,3,2.915C314.608,214.634,314.689,214.634,314.77,214.634Z" transform="translate(-108.638)" fill="#333"/>
      <path id="Path-121" data-name="Path" d="M287.581,241.271a12.543,12.543,0,0,0,1.782-.081c9.553-.972,15.464-8.177,18.7-14.088,8.582-15.626,19.026-36.352,22.751-47.444a.82.82,0,0,0-1.539-.567c-3.643,10.93-14.087,31.576-22.669,47.121-3.077,5.586-8.582,12.387-17.407,13.278a18.724,18.724,0,0,1-7.206-.729L228.64,223.945c-9.958-2.753-25.1-6.882-25.827-7.125a.82.82,0,1,0-.567,1.538c.891.324,23.4,6.477,25.908,7.125L281.509,240.3A21.467,21.467,0,0,0,287.581,241.271Z" transform="translate(3.887)" fill="#333"/>
      <path id="Path-122" data-name="Path" d="M261.584,236.251a.778.778,0,0,0,.729-.486c6.234-12.873.809-21.86.566-22.184a.82.82,0,1,0-1.376.891c.081.081,5.182,8.663-.648,20.645a.8.8,0,0,0,.4,1.053A.487.487,0,0,0,261.584,236.251Z" transform="translate(10.372)" fill="#333"/>
      <path id="Path-123" data-name="Path" d="M249.61,214.634a.81.81,0,0,0,0-1.62h-5.263a.81.81,0,0,0,0,1.62Z" transform="translate(42.506)" fill="#333"/>
      <path id="Path-124" data-name="Path" d="M327.884,218.439a.975.975,0,0,0,.81-.567.833.833,0,0,0-.567-.971l-3.967-1.134c-1.3-.485-1.944-.971-1.782-1.538a.809.809,0,0,1,.324-.4,2.675,2.675,0,0,1,1.781,0c.567.162,1.215.324,1.863.486.566.162,1.133.243,1.781.4a35.266,35.266,0,0,0,8.177,1.295.811.811,0,0,0,.81-.809.765.765,0,0,0-.81-.81,35.186,35.186,0,0,1-7.772-1.215c-.648-.161-1.3-.323-1.863-.485-.647-.162-1.214-.243-1.781-.4a4.093,4.093,0,0,0-3.076.162,2.176,2.176,0,0,0-1.053,1.457c-.324,1.457.567,2.591,2.834,3.4l4.048,1.133Z" transform="translate(-121.347)" fill="#333"/>
      <path id="Path-125" data-name="Path" d="M310.818,103.957h78.373a3.161,3.161,0,0,0,3.157-3.158V59.427a3.161,3.161,0,0,0-3.157-3.158H310.818a3.161,3.161,0,0,0-3.157,3.158V100.8A3.111,3.111,0,0,0,310.818,103.957Z" transform="translate(-195.547 33)" fill="#fff"/>
      <path id="Shape-18" data-name="Shape" d="M310.818,104.767h78.373a3.974,3.974,0,0,0,3.967-3.968V59.427a3.973,3.973,0,0,0-3.967-3.967H310.818a3.973,3.973,0,0,0-3.967,3.967V100.8A3.974,3.974,0,0,0,310.818,104.767ZM389.191,57.16a2.35,2.35,0,0,1,2.348,2.348V100.88a2.35,2.35,0,0,1-2.348,2.348H310.818a2.35,2.35,0,0,1-2.348-2.348V59.427a2.35,2.35,0,0,1,2.348-2.348h78.373Z" transform="translate(-195.547 33)" fill="#757575"/>
      <path id="Path-126" data-name="Path" d="M317.943,62.423c1.7-.972,1.862-2.105,1.862-2.105s.162,1.133,1.862,2.105a7,7,0,0,0,3.077.567,9.646,9.646,0,0,1-4.939,8.258,9.646,9.646,0,0,1-4.939-8.258A7,7,0,0,0,317.943,62.423Z" transform="translate(-135.146 33)" fill="#dff5e3"/>
      <path id="Path-127" data-name="Path" d="M362.554,67.442h19.269a.81.81,0,1,0,0-1.619H362.554a.765.765,0,0,0-.81.81A.811.811,0,0,0,362.554,67.442Z" transform="translate(-239.914 33)" fill="#757575"/>
      <path id="Path-128" data-name="Path" d="M330.816,67.442h23.966a.81.81,0,0,0,0-1.619H330.816a.765.765,0,0,0-.809.81A.811.811,0,0,0,330.816,67.442Z" transform="translate(-181.135 33)" fill="#757575"/>
      <path id="Path-129" data-name="Path" d="M316.081,76.106h32.628a.81.81,0,1,0,0-1.619H316.081a.81.81,0,1,0,0,1.619Z" transform="translate(-160.328 33)" fill="#757575"/>
      <path id="Path-130" data-name="Path" d="M341.5,84.769h32.548a.81.81,0,0,0,0-1.619H341.5a.764.764,0,0,0-.809.81A.811.811,0,0,0,341.5,84.769Z" transform="translate(-211.092 33)" fill="#757575"/>
      <path id="Path-131" data-name="Path" d="M316.081,84.769h19.35a.81.81,0,1,0,0-1.619h-19.35a.81.81,0,1,0,0,1.619Z" transform="translate(-147.049 33)" fill="#757575"/>
      <path id="Path-132" data-name="Path" d="M362.554,93.675h19.269a.81.81,0,1,0,0-1.619H362.554a.765.765,0,0,0-.81.81A.812.812,0,0,0,362.554,93.675Z" transform="translate(-239.914 33)" fill="#757575"/>
      <path id="Path-133" data-name="Path" d="M316.162,93.675h38.62a.81.81,0,0,0,0-1.619h-38.62a.765.765,0,0,0-.809.81A.811.811,0,0,0,316.162,93.675Z" transform="translate(-166.48 33)" fill="#757575"/>
      <path id="Path-134" data-name="Path" d="M354.782,76.106H368.3a.81.81,0,0,0,0-1.619H354.782a.765.765,0,0,0-.81.81A.812.812,0,0,0,354.782,76.106Z" transform="translate(-218.621 33)" fill="#757575"/>
      <path id="Path-135" data-name="Path" d="M373.4,76.106h8.42a.81.81,0,1,0,0-1.619H373.4a.765.765,0,0,0-.81.81A.812.812,0,0,0,373.4,76.106Z" transform="translate(-250.764 33)" fill="#757575"/>
      <path id="Path-136" data-name="Path" d="M150.936,187.916a6.938,6.938,0,0,0,9.877,0,7.134,7.134,0,0,0,0-10.039,6.938,6.938,0,0,0-9.877,0A7.288,7.288,0,0,0,150.936,187.916Z" transform="translate(195.652 -39)" fill="#fff" fill-rule="evenodd"/>
      <path id="Shape-19" data-name="Shape" d="M155.935,190.75a7.467,7.467,0,0,0,5.5-2.348,8.068,8.068,0,0,0,0-11.173,7.629,7.629,0,0,0-11.011,0,8.07,8.07,0,0,0,0,11.173A7.6,7.6,0,0,0,155.935,190.75Zm0-14.169a6.14,6.14,0,0,1,4.372,1.862,6.353,6.353,0,0,1,0,8.906,6,6,0,0,1-4.372,1.862,6.133,6.133,0,0,1-4.372-1.862,6.353,6.353,0,0,1,0-8.906A6.137,6.137,0,0,1,155.935,176.581Z" transform="translate(195.592 -39)" fill="#1e120d"/>
      <path id="Path-137" data-name="Path" d="M150.936,187.916a6.938,6.938,0,0,0,9.877,0,7.134,7.134,0,0,0,0-10.039,6.938,6.938,0,0,0-9.877,0A7.288,7.288,0,0,0,150.936,187.916Z" transform="translate(202.652 -15)" fill="#fff" fill-rule="evenodd"/>
      <path id="Shape-20" data-name="Shape" d="M155.935,190.75a7.467,7.467,0,0,0,5.5-2.348,8.068,8.068,0,0,0,0-11.173,7.629,7.629,0,0,0-11.011,0,8.07,8.07,0,0,0,0,11.173A7.6,7.6,0,0,0,155.935,190.75Zm0-14.169a6.14,6.14,0,0,1,4.372,1.862,6.353,6.353,0,0,1,0,8.906,6,6,0,0,1-4.372,1.862,6.133,6.133,0,0,1-4.372-1.862,6.353,6.353,0,0,1,0-8.906A6.137,6.137,0,0,1,155.935,176.581Z" transform="translate(202.592 -15)" fill="#1e120d"/>
    </g>
  </g>
</svg>
