<svg xmlns="http://www.w3.org/2000/svg" width="588.578" height="397.078" viewBox="0 0 588.578 397.078">
  <g id="Group_669" data-name="Group 669" transform="translate(-2.422 -0.936)">
    <path id="Path_16809" data-name="Path 16809" d="M316.2,52.887s-41.847-33.344-68.5,4.6,13.631,73.525,13.631,73.525L299,104Z" transform="matrix(-0.259, -0.966, 0.966, -0.259, 264.502, 413.123)" fill="#1baaa0"/>
    <circle id="Ellipse_671" data-name="Ellipse 671" cx="10.1" cy="10.1" r="10.1" transform="translate(293.2 13.4)" fill="#1baaa0"/>
    <circle id="Ellipse_672" data-name="Ellipse 672" cx="10.1" cy="10.1" r="10.1" transform="translate(20.5 122.3)" fill="#1baaa0"/>
    <path id="Path_16771" data-name="Path 16771" d="M226,85c15-36,28-69,38-70,8-1,4,25,12,26,7,1,38-41,50-39,11,2,23,100,29,100,6,1,7-48,14-48,8,0,10,48,10,48M16,160s20-46,57-41,42,76,90,63c17-4,32-28,46-55" fill="none" stroke="#1baaa0" stroke-width="2" fill-rule="evenodd"/>
    <path id="Path_16772" data-name="Path 16772" d="M237,220c-9,29-53,49-82,38" fill="#fcb9c9"/>
    <path id="Path_16773" data-name="Path 16773" d="M135,226s26-19,31-17c4,2-8,45-8,45m6-107s-14,36-4,45c9,10,41-26,41-26s-10,15-8,22c1,7,36-10,36-10" fill="none" stroke="#1baaa0" stroke-width="2" fill-rule="evenodd"/>
    <ellipse id="Ellipse_673" data-name="Ellipse 673" cx="6.7" cy="9.2" rx="6.7" ry="9.2" transform="translate(179.4 200.9)" fill="#fff" stroke="#1baaa0" stroke-width="1"/>
    <path id="Path_16774" data-name="Path 16774" d="M20,197c7,0,13,3,16,8L23,237H20" fill="#002b44"/>
    <path id="Path_16775" data-name="Path 16775" d="M523,208" fill="none" stroke="#24124d" stroke-width="1" fill-rule="evenodd"/>
    <path id="Path_16776" data-name="Path 16776" d="M483,164a54,54,0,1,1,48,54l53,53" fill="#002b44"/>
    <path id="Path_16777" data-name="Path 16777" d="M377,166" fill="#fff"/>
    <path id="Path_16810" data-name="Path 16810" d="M9,0c4.971,0,9,5.865,9,13.1S13.971,26.2,9,26.2,0,20.335,0,13.1,4.029,0,9,0Z" transform="matrix(0.375, -0.927, 0.927, 0.375, 402.389, 167.94)" fill="#1baaa0"/>
    <ellipse id="Ellipse_675" data-name="Ellipse 675" cx="5.2" cy="6" rx="5.2" ry="6" transform="translate(446 129.589) rotate(-42)" fill="#002b44"/>
    <path id="Path_16778" data-name="Path 16778" d="M481,180c-9-14-24-34-33-31-14,5-9,55-13,56-4,0-10-12-15-10-4,1-8,12-10,19" fill="none" stroke="#1baaa0" stroke-width="2" fill-rule="evenodd"/>
    <path id="Path_16779" data-name="Path 16779" d="M388,130c8,8,16,14,18,13,5-3,3-18,3-18s12,23,21,20c5-1-1-25-4-34" fill="none" stroke="#1baaa0" stroke-linejoin="round" stroke-width="2" fill-rule="evenodd"/>
    <path id="Path_16780" data-name="Path 16780" d="M155,110,108,93,93,87,57,73l75-57,10-8,2,11Z" fill="#002b44"/>
    <path id="Path_16781" data-name="Path 16781" d="M410,249H521l-47,86Z" fill="#1baaa0"/>
    <path id="Path_16782" data-name="Path 16782" d="M497,249s-19,10-19,18c-1,7,15,11,15,11s-15,2-17,15,6,26,6,26" fill="none" stroke="#fff" stroke-width="2" fill-rule="evenodd"/>
    <path id="Path_16783" data-name="Path 16783" d="M93,280,73,365l88-21Z" fill="#002b44"/>
    <path id="Path_16784" data-name="Path 16784" d="M121,342s44,56,64,55c8-1-5-21,0-22,4-1,16,19,31,12,24-12-2-84,47-108,50-23,71,19,100,21,28,1,90-64,113-61,23,4-50,102-36,122,9,11,28-7,35-4,8,2-4,15,3,17,6,2,53-25,53-25" fill="none" stroke="#002b44" stroke-width="2" fill-rule="evenodd"/>
    <path id="Path_16785" data-name="Path 16785" d="M274,72s-15,6-19,17c-3,11,8,23,8,23l36-8Z" fill="#002b44"/>
    <path id="Path_16786" data-name="Path 16786" d="M309,172" fill="#f84f77"/>
    <path id="Path_16787" data-name="Path 16787" d="M290,117l8-28s10-2,10-9c-1-7-8-6-8-6s-1-9-10-12-17,7-18,15c-1,11,2,17,14,17l-5,15" fill="#ffe199"/>
    <path id="Path_16788" data-name="Path 16788" d="M279,78l-3,5" fill="none" stroke="#24124d" stroke-width="1.4" fill-rule="evenodd"/>
    <path id="Path_16789" data-name="Path 16789" d="M293,109c-10-5,3-37,3-37-11,4-22-2-22-2s7-15,23-9c17,6,18,18,18,18s17,8,14,23-21,21-21,21S300,113,293,109Z" fill="#002b44"/>
    <ellipse id="Ellipse_676" data-name="Ellipse 676" cx="7.5" cy="5.6" rx="7.5" ry="5.6" transform="translate(123.257 53.188) rotate(-67)" fill="#1baaa0"/>
    <path id="Path_16790" data-name="Path 16790" d="M397,327l1,28-15,39-2-29Z" fill="#1baaa0"/>
    <path id="Path_16791" data-name="Path 16791" d="M369,396,264,353l-2-29,106,43Z" fill="#1baaa0"/>
    <path id="Path_16792" data-name="Path 16792" d="M263,324l15-37,105,41-15,38Z" fill="none" stroke="#24124d" stroke-width="1" fill-rule="evenodd"/>
    <path id="Path_16793" data-name="Path 16793" d="M399,42l8-14,44-11-7,13Z" fill="#1baaa0"/>
    <path id="Path_16794" data-name="Path 16794" d="M468,80l8-13L464,22l-7,14Z" fill="#1baaa0"/>
    <path id="Path_16795" data-name="Path 16795" d="M413,47l44-11,11,44L424,91Z" fill="none" stroke="#24124d" stroke-width="1" fill-rule="evenodd"/>
    <path id="Path_16796" data-name="Path 16796" d="M410,249h39l-12,37Z" fill="#1baaa0"/>
    <path id="Path_16797" data-name="Path 16797" d="M469,200a23.609,23.609,0,0,1-9,8l-2-6c-2-10-3-19,0-20s8,7,11,17Z" fill="#002b44"/>
    <path id="Path_16798" data-name="Path 16798" d="M6,277l39-93,39,17L45,293Z" fill="none" stroke="#24124d" stroke-width="1" fill-rule="evenodd"/>
    <path id="Path_16808" data-name="Path 16808" d="M7.9,0c4.363,0,7.9,9.76,7.9,21.8S12.263,43.6,7.9,43.6,0,33.84,0,21.8,3.537,0,7.9,0Z" transform="translate(41.767 190.938) rotate(-67)" fill="#1baaa0"/>
    <ellipse id="Ellipse_678" data-name="Ellipse 678" cx="7.9" cy="21.8" rx="7.9" ry="21.8" transform="translate(2.422 283.673) rotate(-67)" fill="#1baaa0"/>
    <path id="Path_16799" data-name="Path 16799" d="M317,123s5,1,8,7c3,7,4,32,14,42,11,10,35,12,42,6,8-6,9-13,16-13s10,4,9,5c0,1-8,1-8,3m-93,10s30,64,105,10M157,68s12,40,22,44c9,5,52,13,52,13M176,55s16,32,27,35,29,1,46,8M150,53s-19-2-20-4c0-2,26-4,26-4m4,6s-5,3-6,2c0-2,3-10,8-10s15,5,13,9c-3,5-10,0-10,0" fill="none" stroke="#24124d" stroke-width="1" fill-rule="evenodd"/>
    <path id="Path_16800" data-name="Path 16800" d="M143,52s0,6,5,6c4,1,11,2,11,0,1-2-6-2-6-5" fill="none" stroke="#24124d" stroke-width="1" fill-rule="evenodd"/>
    <path id="Path_16801" data-name="Path 16801" d="M156,59s5,3,3,4c-1,1-11-5-11-5M404,162s14-2,16,2c1,2-14,5-14,5m7,3s1,13-7,13c-2,0,4-9,0-10" fill="none" stroke="#24124d" stroke-width="1" fill-rule="evenodd"/>
    <path id="Path_16802" data-name="Path 16802" d="M413,181s3,9-1,10c-1,0-1-5-3-6" fill="none" stroke="#24124d" stroke-width="1" fill-rule="evenodd"/>
    <ellipse id="Ellipse_679" data-name="Ellipse 679" cx="2" cy="1.3" rx="2" ry="1.3" transform="translate(272.9 76.7) rotate(-90)" fill="#24124d"/>
    <ellipse id="Ellipse_680" data-name="Ellipse 680" cx="2" cy="1.3" rx="2" ry="1.3" transform="translate(280.5 78.9) rotate(-90)" fill="#24124d"/>
    <path id="Path_16803" data-name="Path 16803" d="M149,59s-28,3-28,9c-1,6,16,9,16,10,1,1-19,5-18,10,0,5,35,15,35,15M116,28s23-7,23-3c1,5-47,24-47,27s17,1,18,3c0,3-41,23-41,23" fill="none" stroke="#1baaa0" stroke-width="2" fill-rule="evenodd"/>
    <path id="Path_16804" data-name="Path 16804" d="M108,93,93,87c3-9,7-15,11-14S109,82,108,93Z" fill="#1baaa0"/>
    <path id="Path_16805" data-name="Path 16805" d="M240,184c-38,6-92,48-89,73,2,26,64,70,64,70s-10,14-8,25l47-44-42-41,44-29,39,14-13,89,55,25s-3-17-14-23c0,0,40-104,25-129C334,190,277,178,240,184Z" fill="#002b44"/>
    <path id="Path_16806" data-name="Path 16806" d="M199,253l38,38m59-48-2,14" fill="none" stroke="#fff" stroke-width="1.4" fill-rule="evenodd"/>
    <path id="Path_16807" data-name="Path 16807" d="M423,266s17-9,24-2c8,8-5,28-5,28" fill="none" stroke="#fff" stroke-width="2" fill-rule="evenodd"/>
  </g>
</svg>
