<svg xmlns="http://www.w3.org/2000/svg" width="2475.984" height="1842.993" viewBox="0 0 2475.984 1842.993">
  <g id="Group_555" data-name="Group 555" transform="translate(19008.082 3494.173)">
    <path id="Path_16600" data-name="Path 16600" d="M-17501.773-3494.173l-1429.154,901,718.908,875.319,1613-421.824Z" fill="#1baaa0"/>
    <path id="Path_16599" data-name="Path 16599" d="M0,1314Z" transform="matrix(0.966, -0.259, 0.259, 0.966, -18957.051, -2959.806)" fill="#1baaa0"/>
    <g id="Group_554" data-name="Group 554" transform="translate(-19009.691 -3376.223)">
      <path id="Path_16595" data-name="Path 16595" d="M1494.153,3.223,6.37,860.842" transform="translate(4.07 0)" fill="#512da8" fill-rule="evenodd"/>
      <path id="Path_16596" data-name="Path 16596" d="M1194.259,424h.133a33.259,33.259,0,0,1-.133,66.518h-.133a33.259,33.259,0,0,1,.133-66.518" transform="translate(1249.575 453.894)" fill="none" stroke="#24124d" stroke-width="1" fill-rule="evenodd"/>
      <path id="Path_16597" data-name="Path 16597" d="M57.481,1060.97q-92.5,4.156-29.1-61.322c63.4-65.479,27.6-126.115,47.866-127.78,17.388-1.418,9.352,53.549,25.339,55.844s79.546-86.624,103.69-82.809,48.213,214.408,60.291,215.865,14.462-104.821,29.8-104.014,19.872,104.216,19.872,104.216m1421.834,599.315s41.491-93.255,118.06-83.011,116.578,143.84,185.3,129.212.127-94.66,95.747-114.655q95.621-19.993-48.85-77.706M947.167,203.821s91.846,110.288,131.7,108.8c16.786-.619-8.82-41.418.177-43.451s34.357,38.074,65.616,23.015c48.509-23.361-5.378-167.641,97.146-214.838s146.823,37.126,205.671,40.792S1570.616,18.5,1621.706,18.5c25.984,0,42.613,25.984-8.315,75.873" transform="translate(0 16.479)" fill="none" stroke="#f84f77" stroke-width="2" fill-rule="evenodd"/>
      <circle id="Ellipse_639" data-name="Ellipse 639" cx="41.574" cy="41.574" r="41.574" transform="translate(381.759 1592.968)" fill="#f84f77"/>
      <path id="Path_16598" data-name="Path 16598" d="M242.259,784h.133a33.259,33.259,0,0,1-.133,66.519h-.133A33.259,33.259,0,0,1,242.259,784" transform="translate(222.648 842.228)" fill="#fff"/>
    </g>
  </g>
</svg>
