<svg xmlns="http://www.w3.org/2000/svg" width="828" height="965" viewBox="0 0 828 965">
  <g id="Group_677" data-name="Group 677" transform="translate(17546 -818)">
    <rect id="a4afc196fbd2f65a8a3a5e66374c46cd" width="828" height="965" transform="translate(-17546 818)" fill="#002b44"/>
    <g id="Group_676" data-name="Group 676" transform="translate(0 -108.438)">
      <path id="Path_16817" data-name="Path 16817" d="M-229.32-56V0h10.24V-44.8h.96L-206.52,0H-191l11.6-44.8h.96V0h10.24V-56h-18.24l-11.84,44.96h-.96L-211.08-56Zm68.16,22.08v11.84c0,14.72,8.72,23.2,23.04,23.2s23.04-8.48,23.04-23.2V-33.92c0-14.32-8.72-23.2-23.04-23.2S-161.16-48.24-161.16-33.92Zm10.56-.48c0-7.6,4.4-13.28,12.48-13.28,7.84,0,12.48,5.36,12.48,13.28v12.8c0,7.76-3.76,13.28-12.48,13.28-8.48,0-12.48-5.2-12.48-13.28Zm85.12-3.92c0-10.64-7.36-17.6-17.92-17.6h-24.64V0h10.56V-20.72h9.36L-77.8,0h11.68L-77.48-21.6C-70.28-23.76-65.48-29.84-65.48-38.32Zm-32-8h13.04c5.04,0,8.4,3.12,8.4,8s-3.36,8-8.4,8H-97.48ZM-58.76-56V0h37.28V-9.6H-48.2V-23.44h24v-9.6h-24V-46.4h26.24V-56ZM7-56V0H17.56V-20.48H30.04c10.32,0,17.92-7.04,17.92-17.76S40.6-56,30.04-56Zm10.56,9.6H29c5.04,0,8.4,3.2,8.4,8.16s-3.36,8.16-8.4,8.16H17.56ZM59.8-56,44.28,0H55.16l3.36-12.48H78.04L81.4,0H92.28L76.76-56ZM61-22.08,67.8-47.2h.96l6.8,25.12Zm32.64.48c0,14.88,9.44,22.72,23.2,22.72,14.48,0,22.24-7.44,22.24-20.8v-9.28H114.92v9.28h13.6v.56c0,6.72-3.28,10.8-11.68,10.8-8.24,0-12.64-5.12-12.64-12.8V-34.88c0-7.04,4.72-12.8,12.64-12.8,7.68,0,11.68,4.48,11.68,11.2v.8h10.56v-.64c0-13.12-8.08-20.8-22.24-20.8s-23.2,8.8-23.2,22.72ZM146.12-56V0H183.4V-9.6H156.68V-23.44h24v-9.6h-24V-46.4h26.24V-56Zm63.28-1.12c-10.88,0-19.44,6.24-19.44,16.24,0,10.16,6.88,14.16,18.48,16.72l.72.16c7.36,1.6,11.52,3.2,11.52,8.08,0,4.16-3.2,7.76-10,7.76-8.48,0-12.4-4.64-12.4-11.52v-1.44h-10.4v1.76c0,13.12,8.8,20.48,22.48,20.48,11.92,0,20.72-6.32,20.72-17.6,0-10.16-6.8-14.24-18.32-16.8l-.72-.16c-6.72-1.52-11.68-2.48-11.68-7.76,0-3.84,3.44-6.64,9.04-6.64,6.4,0,10.48,2.8,10.48,9.2v1.68h10.24v-2.4C230.12-50.56,221.4-57.12,209.4-57.12ZM-256.32,47.6V60.4c0,14.88,9.44,22.72,23.2,22.72,14.8,0,22.08-7.92,22.08-20.32V60.88H-221.6v2.08c0,6.32-3.12,10.72-11.52,10.72-8.24,0-12.64-5.12-12.64-12.8V47.12c0-7.04,4.72-12.8,12.64-12.8,7.68,0,11.52,4.32,11.52,10.72v2.08h10.56V45.2c0-12.48-7.92-20.32-22.08-20.32S-256.32,33.68-256.32,47.6Zm49.76.48V59.92c0,14.72,8.72,23.2,23.04,23.2s23.04-8.48,23.04-23.2V48.08c0-14.32-8.72-23.2-23.04-23.2S-206.56,33.76-206.56,48.08ZM-196,47.6c0-7.6,4.4-13.28,12.48-13.28,7.84,0,12.48,5.36,12.48,13.28V60.4c0,7.76-3.76,13.28-12.48,13.28C-192,73.68-196,68.48-196,60.4ZM-153.44,26V82h10.24V37.2h.96l11.6,44.8h15.52l11.6-44.8h.96V82h10.24V26h-18.24L-122.4,70.96h-.96L-135.2,26Zm70.4,0V82h10.56V26Zm19.84,0V82h10.56V35.92h.96L-38.88,82h18.72V26H-30.72V72.08h-.96L-44.48,26Zm50.08,34.4c0,14.88,9.44,22.72,23.2,22.72,14.48,0,22.24-7.44,22.24-20.8V53.04H8.16v9.28h13.6v.56c0,6.72-3.28,10.8-11.68,10.8-8.24,0-12.64-5.12-12.64-12.8V47.12c0-7.04,4.72-12.8,12.64-12.8,7.68,0,11.68,4.48,11.68,11.2v.8H32.32v-.64c0-13.12-8.08-20.8-22.24-20.8s-23.2,8.8-23.2,22.72Zm93.2-35.52c-10.88,0-19.44,6.24-19.44,16.24,0,10.16,6.88,14.16,18.48,16.72l.72.16c7.36,1.6,11.52,3.2,11.52,8.08,0,4.16-3.2,7.76-10,7.76-8.48,0-12.4-4.64-12.4-11.52V60.88H58.56v1.76c0,13.12,8.8,20.48,22.48,20.48,11.92,0,20.72-6.32,20.72-17.6,0-10.16-6.8-14.24-18.32-16.8l-.72-.16C76,47.04,71.04,46.08,71.04,40.8c0-3.84,3.44-6.64,9.04-6.64,6.4,0,10.48,2.8,10.48,9.2v1.68H100.8v-2.4C100.8,31.44,92.08,24.88,80.08,24.88Zm26.96,23.2V59.92c0,14.72,8.72,23.2,23.04,23.2s23.04-8.48,23.04-23.2V48.08c0-14.32-8.72-23.2-23.04-23.2S107.04,33.76,107.04,48.08Zm10.56-.48c0-7.6,4.4-13.28,12.48-13.28,7.84,0,12.48,5.36,12.48,13.28V60.4c0,7.76-3.76,13.28-12.48,13.28-8.48,0-12.48-5.2-12.48-13.28Zm40.32.48V59.92c0,14.72,8.72,23.2,23.04,23.2S204,74.64,204,59.92V48.08c0-14.32-8.72-23.2-23.04-23.2S157.92,33.76,157.92,48.08Zm10.56-.48c0-7.6,4.4-13.28,12.48-13.28,7.84,0,12.48,5.36,12.48,13.28V60.4c0,7.76-3.76,13.28-12.48,13.28-8.48,0-12.48-5.2-12.48-13.28ZM211.04,26V82H221.6V35.92h.96L235.36,82h18.72V26H243.52V72.08h-.96L229.76,26Z" transform="translate(-17132 1366)" fill="#f9f9f9"/>
      <path id="Path_16816" data-name="Path 16816" d="M-231.528-23.1V0h7.128c5.874,0,9.372-2.97,9.372-8.976v-5.148c0-6.006-3.5-8.976-9.372-8.976Zm3.3,3.036h3.762c4.026,0,6.138,1.782,6.138,6.006v5.016c0,4.224-2.112,6.006-6.138,6.006h-3.762ZM-212.19-8.085A8.159,8.159,0,0,0-203.874.462a8.159,8.159,0,0,0,8.316-8.547,8.159,8.159,0,0,0-8.316-8.547A8.159,8.159,0,0,0-212.19-8.085Zm3.1,0c0-3.564,2.112-5.709,5.214-5.709s5.214,2.145,5.214,5.709-2.112,5.709-5.214,5.709S-209.088-4.521-209.088-8.085Zm15.609-8.085,3.6,16.17h4.62l3-12.936h.462L-178.86,0h4.686l3.6-16.17h-3.234l-2.541,12.936h-.462l-2.937-12.936H-184.3l-2.937,12.936h-.462l-2.541-12.936Zm26.2,0V0h3.1V-8.448c0-3.366,1.881-5.28,4.884-5.28,2.64,0,4.158,1.452,4.158,4.257V0h3.1V-9.735c0-4.455-2.9-6.7-6.3-6.7-3.2,0-4.686,1.485-5.445,3h-.462V-16.17Zm22.77-6.93h-3.1V0h3.1Zm3.564,15.015A8.159,8.159,0,0,0-132.627.462a8.159,8.159,0,0,0,8.316-8.547,8.159,8.159,0,0,0-8.316-8.547A8.159,8.159,0,0,0-140.943-8.085Zm3.1,0c0-3.564,2.112-5.709,5.214-5.709s5.214,2.145,5.214,5.709-2.112,5.709-5.214,5.709S-137.841-4.521-137.841-8.085Zm16.434-3.828,2.673,1.221a4.9,4.9,0,0,1,4.95-3.168c2.64,0,4.191,1.32,4.191,3.531V-9.9l-5.973.561c-4.158.4-6.171,1.98-6.171,4.917,0,2.9,2.343,4.884,5.973,4.884,3.333,0,5.016-1.551,5.709-3h.462V0h3.036V-10.2c0-3.894-2.805-6.435-7.161-6.435A8.152,8.152,0,0,0-121.407-11.913Zm2.805,7.359c0-1.65,1.485-2.211,3.366-2.376l5.643-.528v.264c0,2.8-1.848,5.082-5.643,5.082C-117.381-2.112-118.6-3.036-118.6-4.554ZM-86.559-23.1h-3.1v9.471h-.4a5.881,5.881,0,0,0-5.544-3c-4.257,0-7.59,3.531-7.59,8.547S-99.858.462-95.6.462a5.881,5.881,0,0,0,5.544-3h.462V0h3.036Zm-8.25,9.24c3.168,0,5.148,2.211,5.148,5.775s-1.98,5.775-5.148,5.775c-3.1,0-5.28-2.079-5.28-5.775S-97.911-13.86-94.809-13.86Zm22.836-9.24V0h9.6c3.96,0,6.831-2.343,6.831-6.237a5.163,5.163,0,0,0-3.894-5.148v-.4A4.948,4.948,0,0,0-55.6-16.9c0-3.96-2.838-6.2-6.831-6.2Zm3.3,3.036h5.94c2.343,0,3.96,1.32,3.96,3.432,0,2.211-1.518,3.531-3.894,3.531h-6.006Zm0,10H-62.6c2.376,0,3.894,1.353,3.894,3.564,0,2.145-1.617,3.465-3.96,3.465h-6.006Zm15.84,1.848c0,4.884,3.432,8.679,8.448,8.679a7.984,7.984,0,0,0,7.161-4.125l-2.607-1.485a4.805,4.805,0,0,1-4.62,2.9A4.84,4.84,0,0,1-49.6-6.963h12.738V-8.514c0-4.686-3.168-8.184-7.92-8.184C-49.467-16.7-52.833-12.969-52.833-8.217ZM-49.6-9.471a4.48,4.48,0,0,1,4.818-4.521,4.34,4.34,0,0,1,4.686,4.521Zm14.157-6.7v2.706h4.488V-2.772A2.616,2.616,0,0,0-28.248,0h4.224V-2.706h-2.97c-.594,0-.858-.264-.858-.924v-9.834H-23.1V-16.17h-4.752v-5.61h-3.1v5.61Zm15.048,4.257,2.673,1.221a4.9,4.9,0,0,1,4.95-3.168c2.64,0,4.191,1.32,4.191,3.531V-9.9l-5.973.561c-4.158.4-6.171,1.98-6.171,4.917,0,2.9,2.343,4.884,5.973,4.884,3.333,0,5.016-1.551,5.709-3h.462V0h3.036V-10.2c0-3.894-2.805-6.435-7.161-6.435A8.152,8.152,0,0,0-20.394-11.913Zm2.805,7.359c0-1.65,1.485-2.211,3.366-2.376l5.643-.528v.264c0,2.8-1.848,5.082-5.643,5.082C-16.368-2.112-17.589-3.036-17.589-4.554ZM14.982-16.17H10.428L2.376-9.339h-.4V-23.1h-3.1V0h3.1V-5.247L5.313-8.019,11.121,0H14.85L7.557-9.933ZM16.8-21.12a2.451,2.451,0,0,0,2.508,2.442,2.451,2.451,0,0,0,2.508-2.442,2.451,2.451,0,0,0-2.508-2.442A2.451,2.451,0,0,0,16.8-21.12Zm4.059,4.95h-3.1V0h3.1Zm2.772,0v2.706h4.488V-2.772A2.616,2.616,0,0,0,30.822,0h4.224V-2.706h-2.97c-.594,0-.858-.264-.858-.924v-9.834H35.97V-16.17H31.218v-5.61h-3.1v5.61Zm24.288,9.7c0,3.96,2.9,6.963,7.392,6.963a8.063,8.063,0,0,0,6.171-2.772h.462L64.284,0H68.64L63.723-4.851v-.462l4.653-8.118h-3.5l-3.4,5.94h-.462l-4.29-4.224C54.417-13.992,53-15.345,53-17.325v-.132c0-1.848,1.386-3.069,3.432-3.069a3.235,3.235,0,0,1,3.564,3.4v.759h3.3v-.858c0-3.927-2.838-6.336-6.8-6.336-3.894,0-6.8,2.343-6.8,6.039v.2A7.152,7.152,0,0,0,51.381-12.9v.429A7.718,7.718,0,0,0,47.916-6.468Zm3.3,0V-6.6a4.342,4.342,0,0,1,2.211-3.6h.429l5.511,5.379v.462a5.349,5.349,0,0,1-4.059,1.815A3.892,3.892,0,0,1,51.216-6.468Zm42.768-9.7v2.541h-.462a5.881,5.881,0,0,0-5.544-3c-4.257,0-7.59,3.432-7.59,8.349S83.721.066,87.978.066a5.881,5.881,0,0,0,5.544-3h.4V-.66c0,3.366-2.079,4.95-5.049,4.95A5.888,5.888,0,0,1,83.424.957L80.652,2.574a9.537,9.537,0,0,0,8.415,4.488c4.851,0,7.953-3.2,7.953-7.557V-16.17ZM88.77-2.706c-3.1,0-5.28-1.98-5.28-5.577s2.178-5.577,5.28-5.577c3.168,0,5.148,2.112,5.148,5.577S91.938-2.706,88.77-2.706Zm11.814-5.511c0,4.884,3.432,8.679,8.448,8.679a7.984,7.984,0,0,0,7.161-4.125l-2.607-1.485a4.805,4.805,0,0,1-4.62,2.9,4.84,4.84,0,0,1-5.148-4.719h12.738V-8.514c0-4.686-3.168-8.184-7.92-8.184C103.95-16.7,100.584-12.969,100.584-8.217Zm3.234-1.254a4.48,4.48,0,0,1,4.818-4.521,4.34,4.34,0,0,1,4.686,4.521Zm14.157-6.7v2.706h4.488V-2.772A2.616,2.616,0,0,0,125.169,0h4.224V-2.706h-2.97c-.594,0-.858-.264-.858-.924v-9.834h4.752V-16.17h-4.752v-5.61h-3.1v5.61Zm24.519-4.95A2.451,2.451,0,0,0,145-18.678a2.451,2.451,0,0,0,2.508-2.442A2.451,2.451,0,0,0,145-23.562,2.451,2.451,0,0,0,142.494-21.12Zm4.059,4.95h-3.1V0h3.1Zm2.772,0v2.706h4.488V-2.772A2.616,2.616,0,0,0,156.519,0h4.224V-2.706h-2.97c-.594,0-.858-.264-.858-.924v-9.834h4.752V-16.17h-4.752v-5.61h-3.1v5.61Zm23.628,0v2.706h4.488V0h3.1V-13.464h4.62V-16.17h-4.62v-3.3c0-.66.264-.924.858-.924h2.9V-23.1h-4.092a2.651,2.651,0,0,0-2.772,2.838v4.092Zm17.952,0h-2.97V0h3.1V-9.438c0-2.442,1.254-3.762,3.564-3.762h2.838v-3.036h-1.848c-2.343,0-3.663.99-4.224,2.706H190.9Zm7.557,7.953c0,4.884,3.432,8.679,8.448,8.679a7.984,7.984,0,0,0,7.161-4.125l-2.607-1.485a4.805,4.805,0,0,1-4.62,2.9A4.84,4.84,0,0,1,201.7-6.963h12.738V-8.514c0-4.686-3.168-8.184-7.92-8.184C201.828-16.7,198.462-12.969,198.462-8.217ZM201.7-9.471a4.48,4.48,0,0,1,4.818-4.521A4.34,4.34,0,0,1,211.2-9.471ZM216.81-8.217c0,4.884,3.432,8.679,8.448,8.679a7.984,7.984,0,0,0,7.161-4.125l-2.607-1.485a4.805,4.805,0,0,1-4.62,2.9,4.84,4.84,0,0,1-5.148-4.719h12.738V-8.514c0-4.686-3.168-8.184-7.92-8.184C220.176-16.7,216.81-12.969,216.81-8.217Zm3.234-1.254a4.48,4.48,0,0,1,4.818-4.521,4.34,4.34,0,0,1,4.686,4.521Z" transform="translate(-17132 1280)" fill="#1baaa0"/>
    </g>
  </g>
</svg>
